%TF.GenerationSoftware,KiCad,Pcbnew,(5.1.8-0-10_14)*%
%TF.CreationDate,2021-03-09T19:09:17+00:00*%
%TF.ProjectId,STPMIC1_MC32PF3000_Board,5354504d-4943-4315-9f4d-433332504633,rev?*%
%TF.SameCoordinates,Original*%
%TF.FileFunction,Soldermask,Bot*%
%TF.FilePolarity,Negative*%
%FSLAX46Y46*%
G04 Gerber Fmt 4.6, Leading zero omitted, Abs format (unit mm)*
G04 Created by KiCad (PCBNEW (5.1.8-0-10_14)) date 2021-03-09 19:09:17*
%MOMM*%
%LPD*%
G01*
G04 APERTURE LIST*
%ADD10C,0.100000*%
%ADD11O,1.700000X1.700000*%
%ADD12R,1.700000X1.700000*%
%ADD13R,3.500000X3.500000*%
%ADD14R,0.800000X0.900000*%
%ADD15C,0.500000*%
%ADD16C,0.254000*%
G04 APERTURE END LIST*
D10*
%TO.C,JP2*%
G36*
X84440000Y-127368398D02*
G01*
X84415466Y-127368398D01*
X84366635Y-127363588D01*
X84318510Y-127354016D01*
X84271555Y-127339772D01*
X84226222Y-127320995D01*
X84182949Y-127297864D01*
X84142150Y-127270604D01*
X84104221Y-127239476D01*
X84069524Y-127204779D01*
X84038396Y-127166850D01*
X84011136Y-127126051D01*
X83988005Y-127082778D01*
X83969228Y-127037445D01*
X83954984Y-126990490D01*
X83945412Y-126942365D01*
X83940602Y-126893534D01*
X83940602Y-126869000D01*
X83940000Y-126869000D01*
X83940000Y-126369000D01*
X83940602Y-126369000D01*
X83940602Y-126344466D01*
X83945412Y-126295635D01*
X83954984Y-126247510D01*
X83969228Y-126200555D01*
X83988005Y-126155222D01*
X84011136Y-126111949D01*
X84038396Y-126071150D01*
X84069524Y-126033221D01*
X84104221Y-125998524D01*
X84142150Y-125967396D01*
X84182949Y-125940136D01*
X84226222Y-125917005D01*
X84271555Y-125898228D01*
X84318510Y-125883984D01*
X84366635Y-125874412D01*
X84415466Y-125869602D01*
X84440000Y-125869602D01*
X84440000Y-125869000D01*
X84940000Y-125869000D01*
X84940000Y-127369000D01*
X84440000Y-127369000D01*
X84440000Y-127368398D01*
G37*
G36*
X85240000Y-125869000D02*
G01*
X85740000Y-125869000D01*
X85740000Y-125869602D01*
X85764534Y-125869602D01*
X85813365Y-125874412D01*
X85861490Y-125883984D01*
X85908445Y-125898228D01*
X85953778Y-125917005D01*
X85997051Y-125940136D01*
X86037850Y-125967396D01*
X86075779Y-125998524D01*
X86110476Y-126033221D01*
X86141604Y-126071150D01*
X86168864Y-126111949D01*
X86191995Y-126155222D01*
X86210772Y-126200555D01*
X86225016Y-126247510D01*
X86234588Y-126295635D01*
X86239398Y-126344466D01*
X86239398Y-126369000D01*
X86240000Y-126369000D01*
X86240000Y-126869000D01*
X86239398Y-126869000D01*
X86239398Y-126893534D01*
X86234588Y-126942365D01*
X86225016Y-126990490D01*
X86210772Y-127037445D01*
X86191995Y-127082778D01*
X86168864Y-127126051D01*
X86141604Y-127166850D01*
X86110476Y-127204779D01*
X86075779Y-127239476D01*
X86037850Y-127270604D01*
X85997051Y-127297864D01*
X85953778Y-127320995D01*
X85908445Y-127339772D01*
X85861490Y-127354016D01*
X85813365Y-127363588D01*
X85764534Y-127368398D01*
X85740000Y-127368398D01*
X85740000Y-127369000D01*
X85240000Y-127369000D01*
X85240000Y-125869000D01*
G37*
%TD*%
%TO.C,JP1*%
G36*
X89774000Y-127368398D02*
G01*
X89749466Y-127368398D01*
X89700635Y-127363588D01*
X89652510Y-127354016D01*
X89605555Y-127339772D01*
X89560222Y-127320995D01*
X89516949Y-127297864D01*
X89476150Y-127270604D01*
X89438221Y-127239476D01*
X89403524Y-127204779D01*
X89372396Y-127166850D01*
X89345136Y-127126051D01*
X89322005Y-127082778D01*
X89303228Y-127037445D01*
X89288984Y-126990490D01*
X89279412Y-126942365D01*
X89274602Y-126893534D01*
X89274602Y-126869000D01*
X89274000Y-126869000D01*
X89274000Y-126369000D01*
X89274602Y-126369000D01*
X89274602Y-126344466D01*
X89279412Y-126295635D01*
X89288984Y-126247510D01*
X89303228Y-126200555D01*
X89322005Y-126155222D01*
X89345136Y-126111949D01*
X89372396Y-126071150D01*
X89403524Y-126033221D01*
X89438221Y-125998524D01*
X89476150Y-125967396D01*
X89516949Y-125940136D01*
X89560222Y-125917005D01*
X89605555Y-125898228D01*
X89652510Y-125883984D01*
X89700635Y-125874412D01*
X89749466Y-125869602D01*
X89774000Y-125869602D01*
X89774000Y-125869000D01*
X90274000Y-125869000D01*
X90274000Y-127369000D01*
X89774000Y-127369000D01*
X89774000Y-127368398D01*
G37*
G36*
X90574000Y-125869000D02*
G01*
X91074000Y-125869000D01*
X91074000Y-125869602D01*
X91098534Y-125869602D01*
X91147365Y-125874412D01*
X91195490Y-125883984D01*
X91242445Y-125898228D01*
X91287778Y-125917005D01*
X91331051Y-125940136D01*
X91371850Y-125967396D01*
X91409779Y-125998524D01*
X91444476Y-126033221D01*
X91475604Y-126071150D01*
X91502864Y-126111949D01*
X91525995Y-126155222D01*
X91544772Y-126200555D01*
X91559016Y-126247510D01*
X91568588Y-126295635D01*
X91573398Y-126344466D01*
X91573398Y-126369000D01*
X91574000Y-126369000D01*
X91574000Y-126869000D01*
X91573398Y-126869000D01*
X91573398Y-126893534D01*
X91568588Y-126942365D01*
X91559016Y-126990490D01*
X91544772Y-127037445D01*
X91525995Y-127082778D01*
X91502864Y-127126051D01*
X91475604Y-127166850D01*
X91444476Y-127204779D01*
X91409779Y-127239476D01*
X91371850Y-127270604D01*
X91331051Y-127297864D01*
X91287778Y-127320995D01*
X91242445Y-127339772D01*
X91195490Y-127354016D01*
X91147365Y-127363588D01*
X91098534Y-127368398D01*
X91074000Y-127368398D01*
X91074000Y-127369000D01*
X90574000Y-127369000D01*
X90574000Y-125869000D01*
G37*
%TD*%
D11*
%TO.C,J6*%
X100584000Y-50800000D03*
X100584000Y-48260000D03*
D12*
X100584000Y-45720000D03*
%TD*%
%TO.C,J4*%
G36*
G01*
X90500000Y-90157000D02*
X90500000Y-88407000D01*
G75*
G02*
X91375000Y-87532000I875000J0D01*
G01*
X93125000Y-87532000D01*
G75*
G02*
X94000000Y-88407000I0J-875000D01*
G01*
X94000000Y-90157000D01*
G75*
G02*
X93125000Y-91032000I-875000J0D01*
G01*
X91375000Y-91032000D01*
G75*
G02*
X90500000Y-90157000I0J875000D01*
G01*
G37*
G36*
G01*
X87750000Y-85582000D02*
X87750000Y-83582000D01*
G75*
G02*
X88500000Y-82832000I750000J0D01*
G01*
X90000000Y-82832000D01*
G75*
G02*
X90750000Y-83582000I0J-750000D01*
G01*
X90750000Y-85582000D01*
G75*
G02*
X90000000Y-86332000I-750000J0D01*
G01*
X88500000Y-86332000D01*
G75*
G02*
X87750000Y-85582000I0J750000D01*
G01*
G37*
D13*
X95250000Y-84582000D03*
%TD*%
%TO.C,C69*%
G36*
G01*
X89561000Y-116045000D02*
X89561000Y-115095000D01*
G75*
G02*
X89811000Y-114845000I250000J0D01*
G01*
X90486000Y-114845000D01*
G75*
G02*
X90736000Y-115095000I0J-250000D01*
G01*
X90736000Y-116045000D01*
G75*
G02*
X90486000Y-116295000I-250000J0D01*
G01*
X89811000Y-116295000D01*
G75*
G02*
X89561000Y-116045000I0J250000D01*
G01*
G37*
G36*
G01*
X91636000Y-116045000D02*
X91636000Y-115095000D01*
G75*
G02*
X91886000Y-114845000I250000J0D01*
G01*
X92561000Y-114845000D01*
G75*
G02*
X92811000Y-115095000I0J-250000D01*
G01*
X92811000Y-116045000D01*
G75*
G02*
X92561000Y-116295000I-250000J0D01*
G01*
X91886000Y-116295000D01*
G75*
G02*
X91636000Y-116045000I0J250000D01*
G01*
G37*
%TD*%
D14*
%TO.C,U3*%
X92136000Y-112760000D03*
X90236000Y-112760000D03*
X91186000Y-110760000D03*
%TD*%
%TO.C,R28*%
G36*
G01*
X87198000Y-136963999D02*
X87198000Y-137864001D01*
G75*
G02*
X86948001Y-138114000I-249999J0D01*
G01*
X86247999Y-138114000D01*
G75*
G02*
X85998000Y-137864001I0J249999D01*
G01*
X85998000Y-136963999D01*
G75*
G02*
X86247999Y-136714000I249999J0D01*
G01*
X86948001Y-136714000D01*
G75*
G02*
X87198000Y-136963999I0J-249999D01*
G01*
G37*
G36*
G01*
X85198000Y-136963999D02*
X85198000Y-137864001D01*
G75*
G02*
X84948001Y-138114000I-249999J0D01*
G01*
X84247999Y-138114000D01*
G75*
G02*
X83998000Y-137864001I0J249999D01*
G01*
X83998000Y-136963999D01*
G75*
G02*
X84247999Y-136714000I249999J0D01*
G01*
X84948001Y-136714000D01*
G75*
G02*
X85198000Y-136963999I0J-249999D01*
G01*
G37*
%TD*%
%TO.C,R27*%
G36*
G01*
X93294000Y-136963999D02*
X93294000Y-137864001D01*
G75*
G02*
X93044001Y-138114000I-249999J0D01*
G01*
X92343999Y-138114000D01*
G75*
G02*
X92094000Y-137864001I0J249999D01*
G01*
X92094000Y-136963999D01*
G75*
G02*
X92343999Y-136714000I249999J0D01*
G01*
X93044001Y-136714000D01*
G75*
G02*
X93294000Y-136963999I0J-249999D01*
G01*
G37*
G36*
G01*
X91294000Y-136963999D02*
X91294000Y-137864001D01*
G75*
G02*
X91044001Y-138114000I-249999J0D01*
G01*
X90343999Y-138114000D01*
G75*
G02*
X90094000Y-137864001I0J249999D01*
G01*
X90094000Y-136963999D01*
G75*
G02*
X90343999Y-136714000I249999J0D01*
G01*
X91044001Y-136714000D01*
G75*
G02*
X91294000Y-136963999I0J-249999D01*
G01*
G37*
%TD*%
%TO.C,R26*%
G36*
G01*
X96190000Y-104082001D02*
X96190000Y-103181999D01*
G75*
G02*
X96439999Y-102932000I249999J0D01*
G01*
X97140001Y-102932000D01*
G75*
G02*
X97390000Y-103181999I0J-249999D01*
G01*
X97390000Y-104082001D01*
G75*
G02*
X97140001Y-104332000I-249999J0D01*
G01*
X96439999Y-104332000D01*
G75*
G02*
X96190000Y-104082001I0J249999D01*
G01*
G37*
G36*
G01*
X98190000Y-104082001D02*
X98190000Y-103181999D01*
G75*
G02*
X98439999Y-102932000I249999J0D01*
G01*
X99140001Y-102932000D01*
G75*
G02*
X99390000Y-103181999I0J-249999D01*
G01*
X99390000Y-104082001D01*
G75*
G02*
X99140001Y-104332000I-249999J0D01*
G01*
X98439999Y-104332000D01*
G75*
G02*
X98190000Y-104082001I0J249999D01*
G01*
G37*
%TD*%
%TO.C,R25*%
G36*
G01*
X96190000Y-106622001D02*
X96190000Y-105721999D01*
G75*
G02*
X96439999Y-105472000I249999J0D01*
G01*
X97140001Y-105472000D01*
G75*
G02*
X97390000Y-105721999I0J-249999D01*
G01*
X97390000Y-106622001D01*
G75*
G02*
X97140001Y-106872000I-249999J0D01*
G01*
X96439999Y-106872000D01*
G75*
G02*
X96190000Y-106622001I0J249999D01*
G01*
G37*
G36*
G01*
X98190000Y-106622001D02*
X98190000Y-105721999D01*
G75*
G02*
X98439999Y-105472000I249999J0D01*
G01*
X99140001Y-105472000D01*
G75*
G02*
X99390000Y-105721999I0J-249999D01*
G01*
X99390000Y-106622001D01*
G75*
G02*
X99140001Y-106872000I-249999J0D01*
G01*
X98439999Y-106872000D01*
G75*
G02*
X98190000Y-106622001I0J249999D01*
G01*
G37*
%TD*%
%TO.C,R24*%
G36*
G01*
X103200000Y-136709999D02*
X103200000Y-137610001D01*
G75*
G02*
X102950001Y-137860000I-249999J0D01*
G01*
X102249999Y-137860000D01*
G75*
G02*
X102000000Y-137610001I0J249999D01*
G01*
X102000000Y-136709999D01*
G75*
G02*
X102249999Y-136460000I249999J0D01*
G01*
X102950001Y-136460000D01*
G75*
G02*
X103200000Y-136709999I0J-249999D01*
G01*
G37*
G36*
G01*
X101200000Y-136709999D02*
X101200000Y-137610001D01*
G75*
G02*
X100950001Y-137860000I-249999J0D01*
G01*
X100249999Y-137860000D01*
G75*
G02*
X100000000Y-137610001I0J249999D01*
G01*
X100000000Y-136709999D01*
G75*
G02*
X100249999Y-136460000I249999J0D01*
G01*
X100950001Y-136460000D01*
G75*
G02*
X101200000Y-136709999I0J-249999D01*
G01*
G37*
%TD*%
%TO.C,R23*%
G36*
G01*
X96190000Y-119830001D02*
X96190000Y-118929999D01*
G75*
G02*
X96439999Y-118680000I249999J0D01*
G01*
X97140001Y-118680000D01*
G75*
G02*
X97390000Y-118929999I0J-249999D01*
G01*
X97390000Y-119830001D01*
G75*
G02*
X97140001Y-120080000I-249999J0D01*
G01*
X96439999Y-120080000D01*
G75*
G02*
X96190000Y-119830001I0J249999D01*
G01*
G37*
G36*
G01*
X98190000Y-119830001D02*
X98190000Y-118929999D01*
G75*
G02*
X98439999Y-118680000I249999J0D01*
G01*
X99140001Y-118680000D01*
G75*
G02*
X99390000Y-118929999I0J-249999D01*
G01*
X99390000Y-119830001D01*
G75*
G02*
X99140001Y-120080000I-249999J0D01*
G01*
X98439999Y-120080000D01*
G75*
G02*
X98190000Y-119830001I0J249999D01*
G01*
G37*
%TD*%
%TO.C,R22*%
G36*
G01*
X104572000Y-137610001D02*
X104572000Y-136709999D01*
G75*
G02*
X104821999Y-136460000I249999J0D01*
G01*
X105522001Y-136460000D01*
G75*
G02*
X105772000Y-136709999I0J-249999D01*
G01*
X105772000Y-137610001D01*
G75*
G02*
X105522001Y-137860000I-249999J0D01*
G01*
X104821999Y-137860000D01*
G75*
G02*
X104572000Y-137610001I0J249999D01*
G01*
G37*
G36*
G01*
X106572000Y-137610001D02*
X106572000Y-136709999D01*
G75*
G02*
X106821999Y-136460000I249999J0D01*
G01*
X107522001Y-136460000D01*
G75*
G02*
X107772000Y-136709999I0J-249999D01*
G01*
X107772000Y-137610001D01*
G75*
G02*
X107522001Y-137860000I-249999J0D01*
G01*
X106821999Y-137860000D01*
G75*
G02*
X106572000Y-137610001I0J249999D01*
G01*
G37*
%TD*%
%TO.C,R21*%
G36*
G01*
X112579999Y-91364000D02*
X113480001Y-91364000D01*
G75*
G02*
X113730000Y-91613999I0J-249999D01*
G01*
X113730000Y-92314001D01*
G75*
G02*
X113480001Y-92564000I-249999J0D01*
G01*
X112579999Y-92564000D01*
G75*
G02*
X112330000Y-92314001I0J249999D01*
G01*
X112330000Y-91613999D01*
G75*
G02*
X112579999Y-91364000I249999J0D01*
G01*
G37*
G36*
G01*
X112579999Y-93364000D02*
X113480001Y-93364000D01*
G75*
G02*
X113730000Y-93613999I0J-249999D01*
G01*
X113730000Y-94314001D01*
G75*
G02*
X113480001Y-94564000I-249999J0D01*
G01*
X112579999Y-94564000D01*
G75*
G02*
X112330000Y-94314001I0J249999D01*
G01*
X112330000Y-93613999D01*
G75*
G02*
X112579999Y-93364000I249999J0D01*
G01*
G37*
%TD*%
%TO.C,R20*%
G36*
G01*
X115512001Y-94564000D02*
X114611999Y-94564000D01*
G75*
G02*
X114362000Y-94314001I0J249999D01*
G01*
X114362000Y-93613999D01*
G75*
G02*
X114611999Y-93364000I249999J0D01*
G01*
X115512001Y-93364000D01*
G75*
G02*
X115762000Y-93613999I0J-249999D01*
G01*
X115762000Y-94314001D01*
G75*
G02*
X115512001Y-94564000I-249999J0D01*
G01*
G37*
G36*
G01*
X115512001Y-92564000D02*
X114611999Y-92564000D01*
G75*
G02*
X114362000Y-92314001I0J249999D01*
G01*
X114362000Y-91613999D01*
G75*
G02*
X114611999Y-91364000I249999J0D01*
G01*
X115512001Y-91364000D01*
G75*
G02*
X115762000Y-91613999I0J-249999D01*
G01*
X115762000Y-92314001D01*
G75*
G02*
X115512001Y-92564000I-249999J0D01*
G01*
G37*
%TD*%
D12*
%TO.C,J23*%
X101600000Y-116332000D03*
D11*
X101600000Y-113792000D03*
X101600000Y-111252000D03*
X101600000Y-108712000D03*
X101600000Y-106172000D03*
X101600000Y-103632000D03*
%TD*%
D12*
%TO.C,J22*%
X146685000Y-95885000D03*
D11*
X149225000Y-95885000D03*
X151765000Y-95885000D03*
%TD*%
D12*
%TO.C,J21*%
X170180000Y-101600000D03*
D11*
X172720000Y-101600000D03*
X170180000Y-104140000D03*
X172720000Y-104140000D03*
X170180000Y-106680000D03*
X172720000Y-106680000D03*
X170180000Y-109220000D03*
X172720000Y-109220000D03*
X170180000Y-111760000D03*
X172720000Y-111760000D03*
X170180000Y-114300000D03*
X172720000Y-114300000D03*
X170180000Y-116840000D03*
X172720000Y-116840000D03*
X170180000Y-119380000D03*
X172720000Y-119380000D03*
X170180000Y-121920000D03*
X172720000Y-121920000D03*
X170180000Y-124460000D03*
X172720000Y-124460000D03*
X170180000Y-127000000D03*
X172720000Y-127000000D03*
X170180000Y-129540000D03*
X172720000Y-129540000D03*
X170180000Y-132080000D03*
X172720000Y-132080000D03*
%TD*%
D12*
%TO.C,J20*%
X110363000Y-97282000D03*
D11*
X112903000Y-97282000D03*
X115443000Y-97282000D03*
%TD*%
D12*
%TO.C,J19*%
X102997000Y-97282000D03*
D11*
X105537000Y-97282000D03*
%TD*%
D12*
%TO.C,J18*%
X101600000Y-129540000D03*
D11*
X101600000Y-132080000D03*
X101600000Y-134620000D03*
%TD*%
D12*
%TO.C,J17*%
X106426000Y-129540000D03*
D11*
X106426000Y-132080000D03*
X106426000Y-134620000D03*
%TD*%
D12*
%TO.C,J16*%
X86614000Y-116840000D03*
D11*
X86614000Y-119380000D03*
X86614000Y-121920000D03*
%TD*%
D13*
%TO.C,J15*%
X95250000Y-100330000D03*
G36*
G01*
X87750000Y-101330000D02*
X87750000Y-99330000D01*
G75*
G02*
X88500000Y-98580000I750000J0D01*
G01*
X90000000Y-98580000D01*
G75*
G02*
X90750000Y-99330000I0J-750000D01*
G01*
X90750000Y-101330000D01*
G75*
G02*
X90000000Y-102080000I-750000J0D01*
G01*
X88500000Y-102080000D01*
G75*
G02*
X87750000Y-101330000I0J750000D01*
G01*
G37*
G36*
G01*
X90500000Y-105905000D02*
X90500000Y-104155000D01*
G75*
G02*
X91375000Y-103280000I875000J0D01*
G01*
X93125000Y-103280000D01*
G75*
G02*
X94000000Y-104155000I0J-875000D01*
G01*
X94000000Y-105905000D01*
G75*
G02*
X93125000Y-106780000I-875000J0D01*
G01*
X91375000Y-106780000D01*
G75*
G02*
X90500000Y-105905000I0J875000D01*
G01*
G37*
%TD*%
D12*
%TO.C,J14*%
X93980000Y-124460000D03*
D11*
X93980000Y-121920000D03*
X93980000Y-119380000D03*
%TD*%
D12*
%TO.C,J13*%
X125222000Y-97282000D03*
D11*
X122682000Y-97282000D03*
X120142000Y-97282000D03*
%TD*%
D12*
%TO.C,J12*%
X86360000Y-112014000D03*
D11*
X86360000Y-109474000D03*
%TD*%
%TO.C,C68*%
G36*
G01*
X94963000Y-113639000D02*
X94013000Y-113639000D01*
G75*
G02*
X93763000Y-113389000I0J250000D01*
G01*
X93763000Y-112714000D01*
G75*
G02*
X94013000Y-112464000I250000J0D01*
G01*
X94963000Y-112464000D01*
G75*
G02*
X95213000Y-112714000I0J-250000D01*
G01*
X95213000Y-113389000D01*
G75*
G02*
X94963000Y-113639000I-250000J0D01*
G01*
G37*
G36*
G01*
X94963000Y-111564000D02*
X94013000Y-111564000D01*
G75*
G02*
X93763000Y-111314000I0J250000D01*
G01*
X93763000Y-110639000D01*
G75*
G02*
X94013000Y-110389000I250000J0D01*
G01*
X94963000Y-110389000D01*
G75*
G02*
X95213000Y-110639000I0J-250000D01*
G01*
X95213000Y-111314000D01*
G75*
G02*
X94963000Y-111564000I-250000J0D01*
G01*
G37*
%TD*%
D12*
%TO.C,J7*%
X154940000Y-46482000D03*
D11*
X157480000Y-46482000D03*
X160020000Y-46482000D03*
%TD*%
D12*
%TO.C,J11*%
X170180000Y-53086000D03*
D11*
X172720000Y-53086000D03*
X170180000Y-55626000D03*
X172720000Y-55626000D03*
X170180000Y-58166000D03*
X172720000Y-58166000D03*
X170180000Y-60706000D03*
X172720000Y-60706000D03*
X170180000Y-63246000D03*
X172720000Y-63246000D03*
X170180000Y-65786000D03*
X172720000Y-65786000D03*
X170180000Y-68326000D03*
X172720000Y-68326000D03*
X170180000Y-70866000D03*
X172720000Y-70866000D03*
X170180000Y-73406000D03*
X172720000Y-73406000D03*
X170180000Y-75946000D03*
X172720000Y-75946000D03*
X170180000Y-78486000D03*
X172720000Y-78486000D03*
X170180000Y-81026000D03*
X172720000Y-81026000D03*
X170180000Y-83566000D03*
X172720000Y-83566000D03*
X170180000Y-86106000D03*
X172720000Y-86106000D03*
%TD*%
D12*
%TO.C,J10*%
X104394000Y-79311500D03*
D11*
X101854000Y-79311500D03*
X99314000Y-79311500D03*
%TD*%
D12*
%TO.C,J9*%
X92710000Y-55880000D03*
D11*
X92710000Y-53340000D03*
X92710000Y-50800000D03*
%TD*%
D12*
%TO.C,J8*%
X112522000Y-79375000D03*
D11*
X115062000Y-79375000D03*
X112522000Y-81915000D03*
X115062000Y-81915000D03*
X112522000Y-84455000D03*
X115062000Y-84455000D03*
%TD*%
D12*
%TO.C,J5*%
X99060000Y-68389500D03*
D11*
X99060000Y-65849500D03*
X99060000Y-63309500D03*
X99060000Y-60769500D03*
X99060000Y-58229500D03*
X99060000Y-55689500D03*
%TD*%
D12*
%TO.C,J3*%
X147320000Y-46482000D03*
D11*
X149860000Y-46482000D03*
%TD*%
D12*
%TO.C,J2*%
X87122000Y-48260000D03*
D11*
X87122000Y-45720000D03*
%TD*%
D12*
%TO.C,J1*%
X87122000Y-73660000D03*
D11*
X87122000Y-76200000D03*
%TD*%
D15*
X125226000Y-65282000D02*
X122233500Y-65282000D01*
X122233500Y-61210000D01*
X125226000Y-61210000D01*
X125226000Y-65282000D01*
D10*
G36*
X125226000Y-65282000D02*
G01*
X122233500Y-65282000D01*
X122233500Y-61210000D01*
X125226000Y-61210000D01*
X125226000Y-65282000D01*
G37*
D16*
X125603000Y-118491000D02*
X119761000Y-118491000D01*
X119761000Y-112649000D01*
X125603000Y-112649000D01*
X125603000Y-118491000D01*
D10*
G36*
X125603000Y-118491000D02*
G01*
X119761000Y-118491000D01*
X119761000Y-112649000D01*
X125603000Y-112649000D01*
X125603000Y-118491000D01*
G37*
M02*
