M48
; DRILL file {KiCad (5.1.8-0-10_14)} date Tuesday, March 09, 2021 at 07:09:19 PM
; FORMAT={-:-/ absolute / inch / decimal}
; #@! TF.CreationDate,2021-03-09T19:09:19+00:00
; #@! TF.GenerationSoftware,Kicad,Pcbnew,(5.1.8-0-10_14)
; #@! TF.FileFunction,Plated,1,4,PTH
FMAT,2
INCH
T1C0.0079
T2C0.0118
T3C0.0394
%
G90
G05
T1
X4.7355Y-4.4555
X4.7355Y-4.5028
X4.7355Y-4.55
X4.7355Y-4.5972
X4.7355Y-4.6445
X4.7828Y-4.4555
X4.7828Y-4.5028
X4.7828Y-4.55
X4.7828Y-4.5972
X4.7828Y-4.6445
X4.83Y-4.4555
X4.83Y-4.5028
X4.83Y-4.55
X4.83Y-4.5972
X4.83Y-4.6445
X4.8772Y-4.4555
X4.8772Y-4.5028
X4.8772Y-4.55
X4.8772Y-4.5972
X4.8772Y-4.6445
X4.9245Y-4.4555
X4.9245Y-4.5028
X4.9245Y-4.55
X4.9245Y-4.5972
X4.9245Y-4.6445
T2
X3.3321Y-5.37
X3.425Y-4.985
X3.525Y-5.1
X3.57Y-5.37
X3.63Y-4.52
X3.6382Y-2.3332
X3.641Y-2.4985
X3.6776Y-5.1874
X3.68Y-4.27
X3.74Y-2.335
X3.741Y-2.4985
X3.81Y-4.55
X3.81Y-4.65
X3.85Y-4.845
X3.9Y-3.855
X4.0Y-2.855
X4.09Y-5.356
X4.11Y-3.54
X4.12Y-2.14
X4.12Y-4.79
X4.18Y-4.42
X4.18Y-4.59
X4.255Y-3.73
X4.305Y-2.59
X4.342Y-4.8
X4.345Y-4.505
X4.345Y-4.675
X4.475Y-4.835
X4.476Y-2.73
X4.486Y-2.381
X4.492Y-4.422
X4.5Y-2.535
X4.516Y-4.887
X4.516Y-4.96
X4.53Y-4.76
X4.535Y-2.415
X4.615Y-5.14
X4.626Y-4.318
X4.6275Y-3.51
X4.635Y-2.05
X4.65Y-2.925
X4.67Y-5.14
X4.7034Y-2.477
X4.705Y-2.57
X4.71Y-4.07
X4.7227Y-4.7823
X4.73Y-2.615
X4.7325Y-2.9245
X4.75Y-3.39
X4.766Y-5.132
X4.77Y-2.065
X4.79Y-4.07
X4.815Y-2.924
X4.8183Y-2.4221
X4.8183Y-2.4667
X4.8183Y-2.5117
X4.8183Y-2.5579
X4.82Y-2.09
X4.82Y-2.71
X4.82Y-3.29
X4.8409Y-4.3375
X4.8415Y-2.325
X4.8425Y-2.765
X4.8521Y-2.5579
X4.8524Y-2.5126
X4.8525Y-2.4221
X4.8526Y-2.4674
X4.8585Y-2.0435
X4.8595Y-4.7795
X4.87Y-4.07
X4.8871Y-2.5579
X4.8874Y-2.5126
X4.8875Y-2.4221
X4.8876Y-2.4674
X4.89Y-3.19
X4.8975Y-2.9235
X4.903Y-2.757
X4.9217Y-2.4221
X4.9217Y-2.4674
X4.9217Y-2.5126
X4.9217Y-2.5579
X4.925Y-4.795
X4.935Y-4.325
X4.935Y-5.45
X4.936Y-5.096
X4.95Y-4.07
X4.955Y-2.338
X4.96Y-3.005
X4.963Y-2.676
X4.98Y-2.924
X4.985Y-4.705
X5.0075Y-4.3751
X5.02Y-2.125
X5.0225Y-3.09
X5.025Y-4.805
X5.0325Y-2.64
X5.0359Y-4.62
X5.04Y-2.25
X5.045Y-2.4
X5.045Y-2.54
X5.045Y-4.68
X5.06Y-4.07
X5.0625Y-2.9235
X5.085Y-4.985
X5.085Y-2.445
X5.088Y-2.681
X5.09Y-4.26
X5.105Y-2.99
X5.125Y-2.115
X5.145Y-2.924
X5.165Y-2.16
X5.19Y-2.52
X5.2Y-2.72
X5.2228Y-4.0
X5.2275Y-2.9235
X5.28Y-2.52
X5.3075Y-2.9235
X5.33Y-2.55
X5.342Y-5.0153
X5.3428Y-4.7028
X5.3458Y-4.8542
X5.3825Y-4.4125
X5.395Y-2.69
X5.3975Y-2.89
X5.4025Y-2.79
X5.4208Y-4.0463
X5.43Y-2.33
X5.52Y-4.25
X5.525Y-4.3
X5.525Y-4.4
X5.525Y-4.5
X5.5625Y-4.7475
X5.5875Y-4.05
X5.5875Y-4.15
X5.595Y-4.35
X5.595Y-4.45
X5.595Y-4.55
X5.62Y-1.84
X5.67Y-4.81
X5.67Y-4.9145
X5.68Y-4.578
X5.72Y-3.925
X5.77Y-4.6
X5.7925Y-2.59
X5.855Y-2.6925
X5.9Y-2.0075
X5.9971Y-3.4609
X6.1Y-5.4
T3
X4.43Y-3.125
X4.43Y-3.225
X4.43Y-3.325
X4.53Y-3.125
X4.53Y-3.225
X4.53Y-3.325
X5.8Y-1.83
X5.9Y-1.83
X6.7Y-2.09
X6.7Y-2.19
X6.7Y-2.29
X6.7Y-2.39
X6.7Y-2.49
X6.7Y-2.59
X6.7Y-2.69
X6.7Y-2.79
X6.7Y-2.89
X6.7Y-2.99
X6.7Y-3.09
X6.7Y-3.19
X6.7Y-3.29
X6.7Y-3.39
X6.8Y-2.09
X6.8Y-2.19
X6.8Y-2.29
X6.8Y-2.39
X6.8Y-2.49
X6.8Y-2.59
X6.8Y-2.69
X6.8Y-2.79
X6.8Y-2.89
X6.8Y-2.99
X6.8Y-3.09
X6.8Y-3.19
X6.8Y-3.29
X6.8Y-3.39
X3.65Y-2.0
X3.65Y-2.1
X3.65Y-2.2
X3.43Y-1.8
X3.43Y-1.9
X4.0Y-4.08
X4.0Y-4.18
X4.0Y-4.28
X4.0Y-4.38
X4.0Y-4.48
X4.0Y-4.58
X3.91Y-3.1225
X4.01Y-3.1225
X4.11Y-3.1225
X6.7Y-4.0
X6.7Y-4.1
X6.7Y-4.2
X6.7Y-4.3
X6.7Y-4.4
X6.7Y-4.5
X6.7Y-4.6
X6.7Y-4.7
X6.7Y-4.8
X6.7Y-4.9
X6.7Y-5.0
X6.7Y-5.1
X6.7Y-5.2
X6.8Y-4.0
X6.8Y-4.1
X6.8Y-4.2
X6.8Y-4.3
X6.8Y-4.4
X6.8Y-4.5
X6.8Y-4.6
X6.8Y-4.7
X6.8Y-4.8
X6.8Y-4.9
X6.8Y-5.0
X6.8Y-5.1
X6.8Y-5.2
X3.4Y-4.31
X3.4Y-4.41
X3.9Y-2.1925
X3.9Y-2.2925
X3.9Y-2.3925
X3.9Y-2.4925
X3.9Y-2.5925
X3.9Y-2.6925
X4.055Y-3.83
X4.155Y-3.83
X3.43Y-2.9
X3.43Y-3.0
X5.775Y-3.775
X5.875Y-3.775
X5.975Y-3.775
X3.41Y-4.6
X3.41Y-4.7
X3.41Y-4.8
X4.73Y-3.83
X4.83Y-3.83
X4.93Y-3.83
X4.19Y-5.1
X4.19Y-5.2
X4.19Y-5.3
X3.7Y-4.7
X3.7Y-4.8
X3.7Y-4.9
X4.0Y-5.1
X4.0Y-5.2
X4.0Y-5.3
X4.345Y-3.83
X4.445Y-3.83
X4.545Y-3.83
X6.1Y-1.83
X6.2Y-1.83
X6.3Y-1.83
X3.96Y-1.8
X3.96Y-1.9
X3.96Y-2.0
T3
G00X3.5138Y-3.2906
M15
G01X3.5138Y-3.3694
M16
G05
G00X3.5925Y-3.515
M15
G01X3.6713Y-3.515
M16
G05
G00X3.75Y-3.2906
M15
G01X3.75Y-3.3694
M16
G05
G00X3.5138Y-3.9106
M15
G01X3.5138Y-3.9894
M16
G05
G00X3.5925Y-4.135
M15
G01X3.6713Y-4.135
M16
G05
G00X3.75Y-3.9106
M15
G01X3.75Y-3.9894
M16
G05
T0
M30
