%TF.GenerationSoftware,KiCad,Pcbnew,(5.1.8-0-10_14)*%
%TF.CreationDate,2021-03-09T19:09:17+00:00*%
%TF.ProjectId,STPMIC1_MC32PF3000_Board,5354504d-4943-4315-9f4d-433332504633,rev?*%
%TF.SameCoordinates,Original*%
%TF.FileFunction,Legend,Bot*%
%TF.FilePolarity,Positive*%
%FSLAX46Y46*%
G04 Gerber Fmt 4.6, Leading zero omitted, Abs format (unit mm)*
G04 Created by KiCad (PCBNEW (5.1.8-0-10_14)) date 2021-03-09 19:09:17*
%MOMM*%
%LPD*%
G01*
G04 APERTURE LIST*
%ADD10C,0.120000*%
%ADD11C,0.100000*%
G04 APERTURE END LIST*
D10*
%TO.C,JP2*%
X85790000Y-125619000D02*
X84390000Y-125619000D01*
X83690000Y-126319000D02*
X83690000Y-126919000D01*
X84390000Y-127619000D02*
X85790000Y-127619000D01*
X86490000Y-126919000D02*
X86490000Y-126319000D01*
X86490000Y-126319000D02*
G75*
G03*
X85790000Y-125619000I-700000J0D01*
G01*
X85790000Y-127619000D02*
G75*
G03*
X86490000Y-126919000I0J700000D01*
G01*
X83690000Y-126919000D02*
G75*
G03*
X84390000Y-127619000I700000J0D01*
G01*
X84390000Y-125619000D02*
G75*
G03*
X83690000Y-126319000I0J-700000D01*
G01*
%TO.C,JP1*%
X91124000Y-125619000D02*
X89724000Y-125619000D01*
X89024000Y-126319000D02*
X89024000Y-126919000D01*
X89724000Y-127619000D02*
X91124000Y-127619000D01*
X91824000Y-126919000D02*
X91824000Y-126319000D01*
X91824000Y-126319000D02*
G75*
G03*
X91124000Y-125619000I-700000J0D01*
G01*
X91124000Y-127619000D02*
G75*
G03*
X91824000Y-126919000I0J700000D01*
G01*
X89024000Y-126919000D02*
G75*
G03*
X89724000Y-127619000I700000J0D01*
G01*
X89724000Y-125619000D02*
G75*
G03*
X89024000Y-126319000I0J-700000D01*
G01*
%TO.C,C69*%
X90924748Y-116305000D02*
X91447252Y-116305000D01*
X90924748Y-114835000D02*
X91447252Y-114835000D01*
%TO.C,U3*%
X89606000Y-111000000D02*
X90536000Y-111000000D01*
X92766000Y-111000000D02*
X91836000Y-111000000D01*
X92766000Y-111000000D02*
X92766000Y-113160000D01*
X89606000Y-111000000D02*
X89606000Y-112460000D01*
%TO.C,R28*%
X85825064Y-136679000D02*
X85370936Y-136679000D01*
X85825064Y-138149000D02*
X85370936Y-138149000D01*
%TO.C,R27*%
X91921064Y-136679000D02*
X91466936Y-136679000D01*
X91921064Y-138149000D02*
X91466936Y-138149000D01*
%TO.C,R26*%
X97562936Y-104367000D02*
X98017064Y-104367000D01*
X97562936Y-102897000D02*
X98017064Y-102897000D01*
%TO.C,R25*%
X97562936Y-106907000D02*
X98017064Y-106907000D01*
X97562936Y-105437000D02*
X98017064Y-105437000D01*
%TO.C,R24*%
X101827064Y-136425000D02*
X101372936Y-136425000D01*
X101827064Y-137895000D02*
X101372936Y-137895000D01*
%TO.C,R23*%
X97562936Y-120115000D02*
X98017064Y-120115000D01*
X97562936Y-118645000D02*
X98017064Y-118645000D01*
%TO.C,R22*%
X105944936Y-137895000D02*
X106399064Y-137895000D01*
X105944936Y-136425000D02*
X106399064Y-136425000D01*
%TO.C,R21*%
X112295000Y-92736936D02*
X112295000Y-93191064D01*
X113765000Y-92736936D02*
X113765000Y-93191064D01*
%TO.C,R20*%
X115797000Y-93191064D02*
X115797000Y-92736936D01*
X114327000Y-93191064D02*
X114327000Y-92736936D01*
%TO.C,C68*%
X95223000Y-112275252D02*
X95223000Y-111752748D01*
X93753000Y-112275252D02*
X93753000Y-111752748D01*
%TO.C,JP2*%
D11*
X85756666Y-124402904D02*
X85756666Y-124974333D01*
X85794761Y-125088619D01*
X85870952Y-125164809D01*
X85985238Y-125202904D01*
X86061428Y-125202904D01*
X85375714Y-125202904D02*
X85375714Y-124402904D01*
X85070952Y-124402904D01*
X84994761Y-124441000D01*
X84956666Y-124479095D01*
X84918571Y-124555285D01*
X84918571Y-124669571D01*
X84956666Y-124745761D01*
X84994761Y-124783857D01*
X85070952Y-124821952D01*
X85375714Y-124821952D01*
X84613809Y-124479095D02*
X84575714Y-124441000D01*
X84499523Y-124402904D01*
X84309047Y-124402904D01*
X84232857Y-124441000D01*
X84194761Y-124479095D01*
X84156666Y-124555285D01*
X84156666Y-124631476D01*
X84194761Y-124745761D01*
X84651904Y-125202904D01*
X84156666Y-125202904D01*
%TO.C,JP1*%
X91090666Y-124402904D02*
X91090666Y-124974333D01*
X91128761Y-125088619D01*
X91204952Y-125164809D01*
X91319238Y-125202904D01*
X91395428Y-125202904D01*
X90709714Y-125202904D02*
X90709714Y-124402904D01*
X90404952Y-124402904D01*
X90328761Y-124441000D01*
X90290666Y-124479095D01*
X90252571Y-124555285D01*
X90252571Y-124669571D01*
X90290666Y-124745761D01*
X90328761Y-124783857D01*
X90404952Y-124821952D01*
X90709714Y-124821952D01*
X89490666Y-125202904D02*
X89947809Y-125202904D01*
X89719238Y-125202904D02*
X89719238Y-124402904D01*
X89795428Y-124517190D01*
X89871619Y-124593380D01*
X89947809Y-124631476D01*
%TO.C,C69*%
X91700285Y-117125714D02*
X91738380Y-117163809D01*
X91852666Y-117201904D01*
X91928857Y-117201904D01*
X92043142Y-117163809D01*
X92119333Y-117087619D01*
X92157428Y-117011428D01*
X92195523Y-116859047D01*
X92195523Y-116744761D01*
X92157428Y-116592380D01*
X92119333Y-116516190D01*
X92043142Y-116440000D01*
X91928857Y-116401904D01*
X91852666Y-116401904D01*
X91738380Y-116440000D01*
X91700285Y-116478095D01*
X91014571Y-116401904D02*
X91166952Y-116401904D01*
X91243142Y-116440000D01*
X91281238Y-116478095D01*
X91357428Y-116592380D01*
X91395523Y-116744761D01*
X91395523Y-117049523D01*
X91357428Y-117125714D01*
X91319333Y-117163809D01*
X91243142Y-117201904D01*
X91090761Y-117201904D01*
X91014571Y-117163809D01*
X90976476Y-117125714D01*
X90938380Y-117049523D01*
X90938380Y-116859047D01*
X90976476Y-116782857D01*
X91014571Y-116744761D01*
X91090761Y-116706666D01*
X91243142Y-116706666D01*
X91319333Y-116744761D01*
X91357428Y-116782857D01*
X91395523Y-116859047D01*
X90557428Y-117201904D02*
X90405047Y-117201904D01*
X90328857Y-117163809D01*
X90290761Y-117125714D01*
X90214571Y-117011428D01*
X90176476Y-116859047D01*
X90176476Y-116554285D01*
X90214571Y-116478095D01*
X90252666Y-116440000D01*
X90328857Y-116401904D01*
X90481238Y-116401904D01*
X90557428Y-116440000D01*
X90595523Y-116478095D01*
X90633619Y-116554285D01*
X90633619Y-116744761D01*
X90595523Y-116820952D01*
X90557428Y-116859047D01*
X90481238Y-116897142D01*
X90328857Y-116897142D01*
X90252666Y-116859047D01*
X90214571Y-116820952D01*
X90176476Y-116744761D01*
%TO.C,U3*%
X89731904Y-109372476D02*
X90379523Y-109372476D01*
X90455714Y-109410571D01*
X90493809Y-109448666D01*
X90531904Y-109524857D01*
X90531904Y-109677238D01*
X90493809Y-109753428D01*
X90455714Y-109791523D01*
X90379523Y-109829619D01*
X89731904Y-109829619D01*
X89731904Y-110134380D02*
X89731904Y-110629619D01*
X90036666Y-110362952D01*
X90036666Y-110477238D01*
X90074761Y-110553428D01*
X90112857Y-110591523D01*
X90189047Y-110629619D01*
X90379523Y-110629619D01*
X90455714Y-110591523D01*
X90493809Y-110553428D01*
X90531904Y-110477238D01*
X90531904Y-110248666D01*
X90493809Y-110172476D01*
X90455714Y-110134380D01*
%TO.C,R28*%
X86112285Y-136251904D02*
X86378952Y-135870952D01*
X86569428Y-136251904D02*
X86569428Y-135451904D01*
X86264666Y-135451904D01*
X86188476Y-135490000D01*
X86150380Y-135528095D01*
X86112285Y-135604285D01*
X86112285Y-135718571D01*
X86150380Y-135794761D01*
X86188476Y-135832857D01*
X86264666Y-135870952D01*
X86569428Y-135870952D01*
X85807523Y-135528095D02*
X85769428Y-135490000D01*
X85693238Y-135451904D01*
X85502761Y-135451904D01*
X85426571Y-135490000D01*
X85388476Y-135528095D01*
X85350380Y-135604285D01*
X85350380Y-135680476D01*
X85388476Y-135794761D01*
X85845619Y-136251904D01*
X85350380Y-136251904D01*
X84893238Y-135794761D02*
X84969428Y-135756666D01*
X85007523Y-135718571D01*
X85045619Y-135642380D01*
X85045619Y-135604285D01*
X85007523Y-135528095D01*
X84969428Y-135490000D01*
X84893238Y-135451904D01*
X84740857Y-135451904D01*
X84664666Y-135490000D01*
X84626571Y-135528095D01*
X84588476Y-135604285D01*
X84588476Y-135642380D01*
X84626571Y-135718571D01*
X84664666Y-135756666D01*
X84740857Y-135794761D01*
X84893238Y-135794761D01*
X84969428Y-135832857D01*
X85007523Y-135870952D01*
X85045619Y-135947142D01*
X85045619Y-136099523D01*
X85007523Y-136175714D01*
X84969428Y-136213809D01*
X84893238Y-136251904D01*
X84740857Y-136251904D01*
X84664666Y-136213809D01*
X84626571Y-136175714D01*
X84588476Y-136099523D01*
X84588476Y-135947142D01*
X84626571Y-135870952D01*
X84664666Y-135832857D01*
X84740857Y-135794761D01*
%TO.C,R27*%
X92208285Y-136251904D02*
X92474952Y-135870952D01*
X92665428Y-136251904D02*
X92665428Y-135451904D01*
X92360666Y-135451904D01*
X92284476Y-135490000D01*
X92246380Y-135528095D01*
X92208285Y-135604285D01*
X92208285Y-135718571D01*
X92246380Y-135794761D01*
X92284476Y-135832857D01*
X92360666Y-135870952D01*
X92665428Y-135870952D01*
X91903523Y-135528095D02*
X91865428Y-135490000D01*
X91789238Y-135451904D01*
X91598761Y-135451904D01*
X91522571Y-135490000D01*
X91484476Y-135528095D01*
X91446380Y-135604285D01*
X91446380Y-135680476D01*
X91484476Y-135794761D01*
X91941619Y-136251904D01*
X91446380Y-136251904D01*
X91179714Y-135451904D02*
X90646380Y-135451904D01*
X90989238Y-136251904D01*
%TO.C,R26*%
X95611904Y-103117714D02*
X95230952Y-102851047D01*
X95611904Y-102660571D02*
X94811904Y-102660571D01*
X94811904Y-102965333D01*
X94850000Y-103041523D01*
X94888095Y-103079619D01*
X94964285Y-103117714D01*
X95078571Y-103117714D01*
X95154761Y-103079619D01*
X95192857Y-103041523D01*
X95230952Y-102965333D01*
X95230952Y-102660571D01*
X94888095Y-103422476D02*
X94850000Y-103460571D01*
X94811904Y-103536761D01*
X94811904Y-103727238D01*
X94850000Y-103803428D01*
X94888095Y-103841523D01*
X94964285Y-103879619D01*
X95040476Y-103879619D01*
X95154761Y-103841523D01*
X95611904Y-103384380D01*
X95611904Y-103879619D01*
X94811904Y-104565333D02*
X94811904Y-104412952D01*
X94850000Y-104336761D01*
X94888095Y-104298666D01*
X95002380Y-104222476D01*
X95154761Y-104184380D01*
X95459523Y-104184380D01*
X95535714Y-104222476D01*
X95573809Y-104260571D01*
X95611904Y-104336761D01*
X95611904Y-104489142D01*
X95573809Y-104565333D01*
X95535714Y-104603428D01*
X95459523Y-104641523D01*
X95269047Y-104641523D01*
X95192857Y-104603428D01*
X95154761Y-104565333D01*
X95116666Y-104489142D01*
X95116666Y-104336761D01*
X95154761Y-104260571D01*
X95192857Y-104222476D01*
X95269047Y-104184380D01*
%TO.C,R25*%
X95611904Y-105657714D02*
X95230952Y-105391047D01*
X95611904Y-105200571D02*
X94811904Y-105200571D01*
X94811904Y-105505333D01*
X94850000Y-105581523D01*
X94888095Y-105619619D01*
X94964285Y-105657714D01*
X95078571Y-105657714D01*
X95154761Y-105619619D01*
X95192857Y-105581523D01*
X95230952Y-105505333D01*
X95230952Y-105200571D01*
X94888095Y-105962476D02*
X94850000Y-106000571D01*
X94811904Y-106076761D01*
X94811904Y-106267238D01*
X94850000Y-106343428D01*
X94888095Y-106381523D01*
X94964285Y-106419619D01*
X95040476Y-106419619D01*
X95154761Y-106381523D01*
X95611904Y-105924380D01*
X95611904Y-106419619D01*
X94811904Y-107143428D02*
X94811904Y-106762476D01*
X95192857Y-106724380D01*
X95154761Y-106762476D01*
X95116666Y-106838666D01*
X95116666Y-107029142D01*
X95154761Y-107105333D01*
X95192857Y-107143428D01*
X95269047Y-107181523D01*
X95459523Y-107181523D01*
X95535714Y-107143428D01*
X95573809Y-107105333D01*
X95611904Y-107029142D01*
X95611904Y-106838666D01*
X95573809Y-106762476D01*
X95535714Y-106724380D01*
%TO.C,R24*%
X102114285Y-139045904D02*
X102380952Y-138664952D01*
X102571428Y-139045904D02*
X102571428Y-138245904D01*
X102266666Y-138245904D01*
X102190476Y-138284000D01*
X102152380Y-138322095D01*
X102114285Y-138398285D01*
X102114285Y-138512571D01*
X102152380Y-138588761D01*
X102190476Y-138626857D01*
X102266666Y-138664952D01*
X102571428Y-138664952D01*
X101809523Y-138322095D02*
X101771428Y-138284000D01*
X101695238Y-138245904D01*
X101504761Y-138245904D01*
X101428571Y-138284000D01*
X101390476Y-138322095D01*
X101352380Y-138398285D01*
X101352380Y-138474476D01*
X101390476Y-138588761D01*
X101847619Y-139045904D01*
X101352380Y-139045904D01*
X100666666Y-138512571D02*
X100666666Y-139045904D01*
X100857142Y-138207809D02*
X101047619Y-138779238D01*
X100552380Y-138779238D01*
%TO.C,R23*%
X98304285Y-121011904D02*
X98570952Y-120630952D01*
X98761428Y-121011904D02*
X98761428Y-120211904D01*
X98456666Y-120211904D01*
X98380476Y-120250000D01*
X98342380Y-120288095D01*
X98304285Y-120364285D01*
X98304285Y-120478571D01*
X98342380Y-120554761D01*
X98380476Y-120592857D01*
X98456666Y-120630952D01*
X98761428Y-120630952D01*
X97999523Y-120288095D02*
X97961428Y-120250000D01*
X97885238Y-120211904D01*
X97694761Y-120211904D01*
X97618571Y-120250000D01*
X97580476Y-120288095D01*
X97542380Y-120364285D01*
X97542380Y-120440476D01*
X97580476Y-120554761D01*
X98037619Y-121011904D01*
X97542380Y-121011904D01*
X97275714Y-120211904D02*
X96780476Y-120211904D01*
X97047142Y-120516666D01*
X96932857Y-120516666D01*
X96856666Y-120554761D01*
X96818571Y-120592857D01*
X96780476Y-120669047D01*
X96780476Y-120859523D01*
X96818571Y-120935714D01*
X96856666Y-120973809D01*
X96932857Y-121011904D01*
X97161428Y-121011904D01*
X97237619Y-120973809D01*
X97275714Y-120935714D01*
%TO.C,R22*%
X106686285Y-139045904D02*
X106952952Y-138664952D01*
X107143428Y-139045904D02*
X107143428Y-138245904D01*
X106838666Y-138245904D01*
X106762476Y-138284000D01*
X106724380Y-138322095D01*
X106686285Y-138398285D01*
X106686285Y-138512571D01*
X106724380Y-138588761D01*
X106762476Y-138626857D01*
X106838666Y-138664952D01*
X107143428Y-138664952D01*
X106381523Y-138322095D02*
X106343428Y-138284000D01*
X106267238Y-138245904D01*
X106076761Y-138245904D01*
X106000571Y-138284000D01*
X105962476Y-138322095D01*
X105924380Y-138398285D01*
X105924380Y-138474476D01*
X105962476Y-138588761D01*
X106419619Y-139045904D01*
X105924380Y-139045904D01*
X105619619Y-138322095D02*
X105581523Y-138284000D01*
X105505333Y-138245904D01*
X105314857Y-138245904D01*
X105238666Y-138284000D01*
X105200571Y-138322095D01*
X105162476Y-138398285D01*
X105162476Y-138474476D01*
X105200571Y-138588761D01*
X105657714Y-139045904D01*
X105162476Y-139045904D01*
%TO.C,R21*%
X113391904Y-89401714D02*
X113010952Y-89135047D01*
X113391904Y-88944571D02*
X112591904Y-88944571D01*
X112591904Y-89249333D01*
X112630000Y-89325523D01*
X112668095Y-89363619D01*
X112744285Y-89401714D01*
X112858571Y-89401714D01*
X112934761Y-89363619D01*
X112972857Y-89325523D01*
X113010952Y-89249333D01*
X113010952Y-88944571D01*
X112668095Y-89706476D02*
X112630000Y-89744571D01*
X112591904Y-89820761D01*
X112591904Y-90011238D01*
X112630000Y-90087428D01*
X112668095Y-90125523D01*
X112744285Y-90163619D01*
X112820476Y-90163619D01*
X112934761Y-90125523D01*
X113391904Y-89668380D01*
X113391904Y-90163619D01*
X113391904Y-90925523D02*
X113391904Y-90468380D01*
X113391904Y-90696952D02*
X112591904Y-90696952D01*
X112706190Y-90620761D01*
X112782380Y-90544571D01*
X112820476Y-90468380D01*
%TO.C,R20*%
X115423904Y-89401714D02*
X115042952Y-89135047D01*
X115423904Y-88944571D02*
X114623904Y-88944571D01*
X114623904Y-89249333D01*
X114662000Y-89325523D01*
X114700095Y-89363619D01*
X114776285Y-89401714D01*
X114890571Y-89401714D01*
X114966761Y-89363619D01*
X115004857Y-89325523D01*
X115042952Y-89249333D01*
X115042952Y-88944571D01*
X114700095Y-89706476D02*
X114662000Y-89744571D01*
X114623904Y-89820761D01*
X114623904Y-90011238D01*
X114662000Y-90087428D01*
X114700095Y-90125523D01*
X114776285Y-90163619D01*
X114852476Y-90163619D01*
X114966761Y-90125523D01*
X115423904Y-89668380D01*
X115423904Y-90163619D01*
X114623904Y-90658857D02*
X114623904Y-90735047D01*
X114662000Y-90811238D01*
X114700095Y-90849333D01*
X114776285Y-90887428D01*
X114928666Y-90925523D01*
X115119142Y-90925523D01*
X115271523Y-90887428D01*
X115347714Y-90849333D01*
X115385809Y-90811238D01*
X115423904Y-90735047D01*
X115423904Y-90658857D01*
X115385809Y-90582666D01*
X115347714Y-90544571D01*
X115271523Y-90506476D01*
X115119142Y-90468380D01*
X114928666Y-90468380D01*
X114776285Y-90506476D01*
X114700095Y-90544571D01*
X114662000Y-90582666D01*
X114623904Y-90658857D01*
%TO.C,C68*%
X95002285Y-114585714D02*
X95040380Y-114623809D01*
X95154666Y-114661904D01*
X95230857Y-114661904D01*
X95345142Y-114623809D01*
X95421333Y-114547619D01*
X95459428Y-114471428D01*
X95497523Y-114319047D01*
X95497523Y-114204761D01*
X95459428Y-114052380D01*
X95421333Y-113976190D01*
X95345142Y-113900000D01*
X95230857Y-113861904D01*
X95154666Y-113861904D01*
X95040380Y-113900000D01*
X95002285Y-113938095D01*
X94316571Y-113861904D02*
X94468952Y-113861904D01*
X94545142Y-113900000D01*
X94583238Y-113938095D01*
X94659428Y-114052380D01*
X94697523Y-114204761D01*
X94697523Y-114509523D01*
X94659428Y-114585714D01*
X94621333Y-114623809D01*
X94545142Y-114661904D01*
X94392761Y-114661904D01*
X94316571Y-114623809D01*
X94278476Y-114585714D01*
X94240380Y-114509523D01*
X94240380Y-114319047D01*
X94278476Y-114242857D01*
X94316571Y-114204761D01*
X94392761Y-114166666D01*
X94545142Y-114166666D01*
X94621333Y-114204761D01*
X94659428Y-114242857D01*
X94697523Y-114319047D01*
X93783238Y-114204761D02*
X93859428Y-114166666D01*
X93897523Y-114128571D01*
X93935619Y-114052380D01*
X93935619Y-114014285D01*
X93897523Y-113938095D01*
X93859428Y-113900000D01*
X93783238Y-113861904D01*
X93630857Y-113861904D01*
X93554666Y-113900000D01*
X93516571Y-113938095D01*
X93478476Y-114014285D01*
X93478476Y-114052380D01*
X93516571Y-114128571D01*
X93554666Y-114166666D01*
X93630857Y-114204761D01*
X93783238Y-114204761D01*
X93859428Y-114242857D01*
X93897523Y-114280952D01*
X93935619Y-114357142D01*
X93935619Y-114509523D01*
X93897523Y-114585714D01*
X93859428Y-114623809D01*
X93783238Y-114661904D01*
X93630857Y-114661904D01*
X93554666Y-114623809D01*
X93516571Y-114585714D01*
X93478476Y-114509523D01*
X93478476Y-114357142D01*
X93516571Y-114280952D01*
X93554666Y-114242857D01*
X93630857Y-114204761D01*
%TD*%
M02*
