<?xml version="1.0" standalone="no"?>
 <!DOCTYPE svg PUBLIC "-//W3C//DTD SVG 1.1//EN" 
 "http://www.w3.org/Graphics/SVG/1.1/DTD/svg11.dtd"> 
<svg
  xmlns:svg="http://www.w3.org/2000/svg"
  xmlns="http://www.w3.org/2000/svg"
  xmlns:xlink="http://www.w3.org/1999/xlink"
  version="1.1"
  width="41.998900cm" height="29.700220cm" viewBox="0 0 165350 116930">
<title>SVG Picture created as STPMIC1_MC32PF3000_Board.svg date 2021/03/02 09:52:16 </title>
  <desc>Picture generated by Eeschema-SVG </desc>
<g style="fill:#000000; fill-opacity:1;stroke:#000000; stroke-opacity:1;
stroke-linecap:round; stroke-linejoin:round;"
 transform="translate(0 0) scale(1 1)">
</g>
<g style="fill:#000000; fill-opacity:0.0; 
stroke:#000000; stroke-width:-10; stroke-opacity:1; 
stroke-linecap:round; stroke-linejoin:round;">
</g>
<g style="fill:#840000; fill-opacity:0.0; 
stroke:#840000; stroke-width:-10; stroke-opacity:1; 
stroke-linecap:round; stroke-linejoin:round;">
</g>
<g style="fill:#840000; fill-opacity:0.0; 
stroke:#840000; stroke-width:100; stroke-opacity:1; 
stroke-linecap:round; stroke-linejoin:round;">
</g>
<g style="fill:#840000; fill-opacity:0.0; 
stroke:#840000; stroke-width:60; stroke-opacity:1; 
stroke-linecap:round; stroke-linejoin:round;">
<rect x="118110" y="99610" width="42520" height="12600" rx="0" />
</g>
<g style="fill:#840000; fill-opacity:0.0; 
stroke:#840000; stroke-width:100; stroke-opacity:1; 
stroke-linecap:round; stroke-linejoin:round;">
</g>
<g style="fill:#840000; fill-opacity:0.0; 
stroke:#840000; stroke-width:60; stroke-opacity:1; 
stroke-linecap:round; stroke-linejoin:round;">
<rect x="3940" y="3940" width="157470" height="109050" rx="0" />
</g>
<g style="fill:#840000; fill-opacity:0.0; 
stroke:#840000; stroke-width:100; stroke-opacity:1; 
stroke-linecap:round; stroke-linejoin:round;">
</g>
<g style="fill:#840000; fill-opacity:0.0; 
stroke:#840000; stroke-width:60; stroke-opacity:1; 
stroke-linecap:round; stroke-linejoin:round;">
<rect x="4720" y="4720" width="155910" height="107490" rx="0" />
</g>
<g style="fill:#840000; fill-opacity:0.0; 
stroke:#840000; stroke-width:100; stroke-opacity:1; 
stroke-linecap:round; stroke-linejoin:round;">
</g>
<g style="fill:#840000; fill-opacity:0.0; 
stroke:#840000; stroke-width:60; stroke-opacity:1; 
stroke-linecap:round; stroke-linejoin:round;">
<path d="M23620 4720
L23620 3940
" />
</g>
<g style="fill:#840000; fill-opacity:0.0; 
stroke:#840000; stroke-width:100; stroke-opacity:1; 
stroke-linecap:round; stroke-linejoin:round;">
</g>
<g style="fill:#840000; fill-opacity:0.0; 
stroke:#840000; stroke-width:60; stroke-opacity:1; 
stroke-linecap:round; stroke-linejoin:round;">
<path d="M43310 4720
L43310 3940
" />
</g>
<g style="fill:#840000; fill-opacity:0.0; 
stroke:#840000; stroke-width:100; stroke-opacity:1; 
stroke-linecap:round; stroke-linejoin:round;">
</g>
<g style="fill:#840000; fill-opacity:0.0; 
stroke:#840000; stroke-width:60; stroke-opacity:1; 
stroke-linecap:round; stroke-linejoin:round;">
<path d="M62990 4720
L62990 3940
" />
</g>
<g style="fill:#840000; fill-opacity:0.0; 
stroke:#840000; stroke-width:100; stroke-opacity:1; 
stroke-linecap:round; stroke-linejoin:round;">
</g>
<g style="fill:#840000; fill-opacity:0.0; 
stroke:#840000; stroke-width:60; stroke-opacity:1; 
stroke-linecap:round; stroke-linejoin:round;">
<path d="M82680 4720
L82680 3940
" />
</g>
<g style="fill:#840000; fill-opacity:0.0; 
stroke:#840000; stroke-width:100; stroke-opacity:1; 
stroke-linecap:round; stroke-linejoin:round;">
</g>
<g style="fill:#840000; fill-opacity:0.0; 
stroke:#840000; stroke-width:60; stroke-opacity:1; 
stroke-linecap:round; stroke-linejoin:round;">
<path d="M102360 4720
L102360 3940
" />
</g>
<g style="fill:#840000; fill-opacity:0.0; 
stroke:#840000; stroke-width:100; stroke-opacity:1; 
stroke-linecap:round; stroke-linejoin:round;">
</g>
<g style="fill:#840000; fill-opacity:0.0; 
stroke:#840000; stroke-width:60; stroke-opacity:1; 
stroke-linecap:round; stroke-linejoin:round;">
<path d="M122050 4720
L122050 3940
" />
</g>
<g style="fill:#840000; fill-opacity:0.0; 
stroke:#840000; stroke-width:100; stroke-opacity:1; 
stroke-linecap:round; stroke-linejoin:round;">
</g>
<g style="fill:#840000; fill-opacity:0.0; 
stroke:#840000; stroke-width:60; stroke-opacity:1; 
stroke-linecap:round; stroke-linejoin:round;">
<path d="M141730 4720
L141730 3940
" />
</g>
<g style="fill:#840000; fill-opacity:0.0; 
stroke:#840000; stroke-width:100; stroke-opacity:1; 
stroke-linecap:round; stroke-linejoin:round;">
</g>
<g style="fill:#840000; fill-opacity:0.0; 
stroke:#840000; stroke-width:60; stroke-opacity:1; 
stroke-linecap:round; stroke-linejoin:round;">
<text x="13780" y="4580"
textLength="550" font-size="680" lengthAdjust="spacingAndGlyphs"
text-anchor="start" opacity="0">1</text>
<path d="M14190 4560
L13900 4560
" />
<path d="M14050 4560
L14050 4050
L14000 4120
L13950 4170
L13900 4190
" />
</g>
<g style="fill:#840000; fill-opacity:0.0; 
stroke:#840000; stroke-width:100; stroke-opacity:1; 
stroke-linecap:round; stroke-linejoin:round;">
</g>
<g style="fill:#840000; fill-opacity:0.0; 
stroke:#840000; stroke-width:60; stroke-opacity:1; 
stroke-linecap:round; stroke-linejoin:round;">
<text x="33460" y="4580"
textLength="550" font-size="680" lengthAdjust="spacingAndGlyphs"
text-anchor="start" opacity="0">2</text>
<path d="M33580 4090
L33610 4070
L33660 4050
L33780 4050
L33830 4070
L33850 4090
L33870 4140
L33870 4190
L33850 4260
L33560 4560
L33870 4560
" />
</g>
<g style="fill:#840000; fill-opacity:0.0; 
stroke:#840000; stroke-width:100; stroke-opacity:1; 
stroke-linecap:round; stroke-linejoin:round;">
</g>
<g style="fill:#840000; fill-opacity:0.0; 
stroke:#840000; stroke-width:60; stroke-opacity:1; 
stroke-linecap:round; stroke-linejoin:round;">
<text x="53150" y="4580"
textLength="550" font-size="680" lengthAdjust="spacingAndGlyphs"
text-anchor="start" opacity="0">3</text>
<path d="M53250 4050
L53560 4050
L53390 4240
L53470 4240
L53520 4260
L53540 4290
L53560 4340
L53560 4460
L53540 4510
L53520 4530
L53470 4560
L53320 4560
L53270 4530
L53250 4510
" />
</g>
<g style="fill:#840000; fill-opacity:0.0; 
stroke:#840000; stroke-width:100; stroke-opacity:1; 
stroke-linecap:round; stroke-linejoin:round;">
</g>
<g style="fill:#840000; fill-opacity:0.0; 
stroke:#840000; stroke-width:60; stroke-opacity:1; 
stroke-linecap:round; stroke-linejoin:round;">
<text x="72830" y="4580"
textLength="550" font-size="680" lengthAdjust="spacingAndGlyphs"
text-anchor="start" opacity="0">4</text>
<path d="M73200 4220
L73200 4560
" />
<path d="M73070 4020
L72950 4390
L73270 4390
" />
</g>
<g style="fill:#840000; fill-opacity:0.0; 
stroke:#840000; stroke-width:100; stroke-opacity:1; 
stroke-linecap:round; stroke-linejoin:round;">
</g>
<g style="fill:#840000; fill-opacity:0.0; 
stroke:#840000; stroke-width:60; stroke-opacity:1; 
stroke-linecap:round; stroke-linejoin:round;">
<text x="92520" y="4580"
textLength="550" font-size="680" lengthAdjust="spacingAndGlyphs"
text-anchor="start" opacity="0">5</text>
<path d="M92910 4050
L92670 4050
L92640 4290
L92670 4260
L92720 4240
L92840 4240
L92890 4260
L92910 4290
L92930 4340
L92930 4460
L92910 4510
L92890 4530
L92840 4560
L92720 4560
L92670 4530
L92640 4510
" />
</g>
<g style="fill:#840000; fill-opacity:0.0; 
stroke:#840000; stroke-width:100; stroke-opacity:1; 
stroke-linecap:round; stroke-linejoin:round;">
</g>
<g style="fill:#840000; fill-opacity:0.0; 
stroke:#840000; stroke-width:60; stroke-opacity:1; 
stroke-linecap:round; stroke-linejoin:round;">
<text x="112200" y="4580"
textLength="550" font-size="680" lengthAdjust="spacingAndGlyphs"
text-anchor="start" opacity="0">6</text>
<path d="M112570 4050
L112470 4050
L112420 4070
L112400 4090
L112350 4170
L112320 4260
L112320 4460
L112350 4510
L112370 4530
L112420 4560
L112520 4560
L112570 4530
L112590 4510
L112610 4460
L112610 4340
L112590 4290
L112570 4260
L112520 4240
L112420 4240
L112370 4260
L112350 4290
L112320 4340
" />
</g>
<g style="fill:#840000; fill-opacity:0.0; 
stroke:#840000; stroke-width:100; stroke-opacity:1; 
stroke-linecap:round; stroke-linejoin:round;">
</g>
<g style="fill:#840000; fill-opacity:0.0; 
stroke:#840000; stroke-width:60; stroke-opacity:1; 
stroke-linecap:round; stroke-linejoin:round;">
<text x="131890" y="4580"
textLength="550" font-size="680" lengthAdjust="spacingAndGlyphs"
text-anchor="start" opacity="0">7</text>
<path d="M131990 4050
L132330 4050
L132110 4560
" />
</g>
<g style="fill:#840000; fill-opacity:0.0; 
stroke:#840000; stroke-width:100; stroke-opacity:1; 
stroke-linecap:round; stroke-linejoin:round;">
</g>
<g style="fill:#840000; fill-opacity:0.0; 
stroke:#840000; stroke-width:60; stroke-opacity:1; 
stroke-linecap:round; stroke-linejoin:round;">
<text x="151570" y="4580"
textLength="550" font-size="680" lengthAdjust="spacingAndGlyphs"
text-anchor="start" opacity="0">8</text>
<path d="M151790 4260
L151740 4240
L151720 4220
L151690 4170
L151690 4140
L151720 4090
L151740 4070
L151790 4050
L151890 4050
L151940 4070
L151960 4090
L151980 4140
L151980 4170
L151960 4220
L151940 4240
L151890 4260
L151790 4260
L151740 4290
L151720 4310
L151690 4360
L151690 4460
L151720 4510
L151740 4530
L151790 4560
L151890 4560
L151940 4530
L151960 4510
L151980 4460
L151980 4360
L151960 4310
L151940 4290
L151890 4260
" />
</g>
<g style="fill:#840000; fill-opacity:0.0; 
stroke:#840000; stroke-width:100; stroke-opacity:1; 
stroke-linecap:round; stroke-linejoin:round;">
</g>
<g style="fill:#840000; fill-opacity:0.0; 
stroke:#840000; stroke-width:60; stroke-opacity:1; 
stroke-linecap:round; stroke-linejoin:round;">
<path d="M23620 112210
L23620 112990
" />
</g>
<g style="fill:#840000; fill-opacity:0.0; 
stroke:#840000; stroke-width:100; stroke-opacity:1; 
stroke-linecap:round; stroke-linejoin:round;">
</g>
<g style="fill:#840000; fill-opacity:0.0; 
stroke:#840000; stroke-width:60; stroke-opacity:1; 
stroke-linecap:round; stroke-linejoin:round;">
<path d="M43310 112210
L43310 112990
" />
</g>
<g style="fill:#840000; fill-opacity:0.0; 
stroke:#840000; stroke-width:100; stroke-opacity:1; 
stroke-linecap:round; stroke-linejoin:round;">
</g>
<g style="fill:#840000; fill-opacity:0.0; 
stroke:#840000; stroke-width:60; stroke-opacity:1; 
stroke-linecap:round; stroke-linejoin:round;">
<path d="M62990 112210
L62990 112990
" />
</g>
<g style="fill:#840000; fill-opacity:0.0; 
stroke:#840000; stroke-width:100; stroke-opacity:1; 
stroke-linecap:round; stroke-linejoin:round;">
</g>
<g style="fill:#840000; fill-opacity:0.0; 
stroke:#840000; stroke-width:60; stroke-opacity:1; 
stroke-linecap:round; stroke-linejoin:round;">
<path d="M82680 112210
L82680 112990
" />
</g>
<g style="fill:#840000; fill-opacity:0.0; 
stroke:#840000; stroke-width:100; stroke-opacity:1; 
stroke-linecap:round; stroke-linejoin:round;">
</g>
<g style="fill:#840000; fill-opacity:0.0; 
stroke:#840000; stroke-width:60; stroke-opacity:1; 
stroke-linecap:round; stroke-linejoin:round;">
<path d="M102360 112210
L102360 112990
" />
</g>
<g style="fill:#840000; fill-opacity:0.0; 
stroke:#840000; stroke-width:100; stroke-opacity:1; 
stroke-linecap:round; stroke-linejoin:round;">
</g>
<g style="fill:#840000; fill-opacity:0.0; 
stroke:#840000; stroke-width:60; stroke-opacity:1; 
stroke-linecap:round; stroke-linejoin:round;">
<path d="M122050 112210
L122050 112990
" />
</g>
<g style="fill:#840000; fill-opacity:0.0; 
stroke:#840000; stroke-width:100; stroke-opacity:1; 
stroke-linecap:round; stroke-linejoin:round;">
</g>
<g style="fill:#840000; fill-opacity:0.0; 
stroke:#840000; stroke-width:60; stroke-opacity:1; 
stroke-linecap:round; stroke-linejoin:round;">
<path d="M141730 112210
L141730 112990
" />
</g>
<g style="fill:#840000; fill-opacity:0.0; 
stroke:#840000; stroke-width:100; stroke-opacity:1; 
stroke-linecap:round; stroke-linejoin:round;">
</g>
<g style="fill:#840000; fill-opacity:0.0; 
stroke:#840000; stroke-width:60; stroke-opacity:1; 
stroke-linecap:round; stroke-linejoin:round;">
<text x="13780" y="112850"
textLength="550" font-size="680" lengthAdjust="spacingAndGlyphs"
text-anchor="start" opacity="0">1</text>
<path d="M14190 112830
L13900 112830
" />
<path d="M14050 112830
L14050 112320
L14000 112390
L13950 112440
L13900 112460
" />
</g>
<g style="fill:#840000; fill-opacity:0.0; 
stroke:#840000; stroke-width:100; stroke-opacity:1; 
stroke-linecap:round; stroke-linejoin:round;">
</g>
<g style="fill:#840000; fill-opacity:0.0; 
stroke:#840000; stroke-width:60; stroke-opacity:1; 
stroke-linecap:round; stroke-linejoin:round;">
<text x="33460" y="112850"
textLength="550" font-size="680" lengthAdjust="spacingAndGlyphs"
text-anchor="start" opacity="0">2</text>
<path d="M33580 112360
L33610 112340
L33660 112320
L33780 112320
L33830 112340
L33850 112360
L33870 112410
L33870 112460
L33850 112530
L33560 112830
L33870 112830
" />
</g>
<g style="fill:#840000; fill-opacity:0.0; 
stroke:#840000; stroke-width:100; stroke-opacity:1; 
stroke-linecap:round; stroke-linejoin:round;">
</g>
<g style="fill:#840000; fill-opacity:0.0; 
stroke:#840000; stroke-width:60; stroke-opacity:1; 
stroke-linecap:round; stroke-linejoin:round;">
<text x="53150" y="112850"
textLength="550" font-size="680" lengthAdjust="spacingAndGlyphs"
text-anchor="start" opacity="0">3</text>
<path d="M53250 112320
L53560 112320
L53390 112510
L53470 112510
L53520 112530
L53540 112560
L53560 112610
L53560 112730
L53540 112780
L53520 112800
L53470 112830
L53320 112830
L53270 112800
L53250 112780
" />
</g>
<g style="fill:#840000; fill-opacity:0.0; 
stroke:#840000; stroke-width:100; stroke-opacity:1; 
stroke-linecap:round; stroke-linejoin:round;">
</g>
<g style="fill:#840000; fill-opacity:0.0; 
stroke:#840000; stroke-width:60; stroke-opacity:1; 
stroke-linecap:round; stroke-linejoin:round;">
<text x="72830" y="112850"
textLength="550" font-size="680" lengthAdjust="spacingAndGlyphs"
text-anchor="start" opacity="0">4</text>
<path d="M73200 112490
L73200 112830
" />
<path d="M73070 112290
L72950 112660
L73270 112660
" />
</g>
<g style="fill:#840000; fill-opacity:0.0; 
stroke:#840000; stroke-width:100; stroke-opacity:1; 
stroke-linecap:round; stroke-linejoin:round;">
</g>
<g style="fill:#840000; fill-opacity:0.0; 
stroke:#840000; stroke-width:60; stroke-opacity:1; 
stroke-linecap:round; stroke-linejoin:round;">
<text x="92520" y="112850"
textLength="550" font-size="680" lengthAdjust="spacingAndGlyphs"
text-anchor="start" opacity="0">5</text>
<path d="M92910 112320
L92670 112320
L92640 112560
L92670 112530
L92720 112510
L92840 112510
L92890 112530
L92910 112560
L92930 112610
L92930 112730
L92910 112780
L92890 112800
L92840 112830
L92720 112830
L92670 112800
L92640 112780
" />
</g>
<g style="fill:#840000; fill-opacity:0.0; 
stroke:#840000; stroke-width:100; stroke-opacity:1; 
stroke-linecap:round; stroke-linejoin:round;">
</g>
<g style="fill:#840000; fill-opacity:0.0; 
stroke:#840000; stroke-width:60; stroke-opacity:1; 
stroke-linecap:round; stroke-linejoin:round;">
<text x="112200" y="112850"
textLength="550" font-size="680" lengthAdjust="spacingAndGlyphs"
text-anchor="start" opacity="0">6</text>
<path d="M112570 112320
L112470 112320
L112420 112340
L112400 112360
L112350 112440
L112320 112530
L112320 112730
L112350 112780
L112370 112800
L112420 112830
L112520 112830
L112570 112800
L112590 112780
L112610 112730
L112610 112610
L112590 112560
L112570 112530
L112520 112510
L112420 112510
L112370 112530
L112350 112560
L112320 112610
" />
</g>
<g style="fill:#840000; fill-opacity:0.0; 
stroke:#840000; stroke-width:100; stroke-opacity:1; 
stroke-linecap:round; stroke-linejoin:round;">
</g>
<g style="fill:#840000; fill-opacity:0.0; 
stroke:#840000; stroke-width:60; stroke-opacity:1; 
stroke-linecap:round; stroke-linejoin:round;">
<text x="131890" y="112850"
textLength="550" font-size="680" lengthAdjust="spacingAndGlyphs"
text-anchor="start" opacity="0">7</text>
<path d="M131990 112320
L132330 112320
L132110 112830
" />
</g>
<g style="fill:#840000; fill-opacity:0.0; 
stroke:#840000; stroke-width:100; stroke-opacity:1; 
stroke-linecap:round; stroke-linejoin:round;">
</g>
<g style="fill:#840000; fill-opacity:0.0; 
stroke:#840000; stroke-width:60; stroke-opacity:1; 
stroke-linecap:round; stroke-linejoin:round;">
<text x="151570" y="112850"
textLength="550" font-size="680" lengthAdjust="spacingAndGlyphs"
text-anchor="start" opacity="0">8</text>
<path d="M151790 112530
L151740 112510
L151720 112490
L151690 112440
L151690 112410
L151720 112360
L151740 112340
L151790 112320
L151890 112320
L151940 112340
L151960 112360
L151980 112410
L151980 112440
L151960 112490
L151940 112510
L151890 112530
L151790 112530
L151740 112560
L151720 112580
L151690 112630
L151690 112730
L151720 112780
L151740 112800
L151790 112830
L151890 112830
L151940 112800
L151960 112780
L151980 112730
L151980 112630
L151960 112580
L151940 112560
L151890 112530
" />
</g>
<g style="fill:#840000; fill-opacity:0.0; 
stroke:#840000; stroke-width:100; stroke-opacity:1; 
stroke-linecap:round; stroke-linejoin:round;">
</g>
<g style="fill:#840000; fill-opacity:0.0; 
stroke:#840000; stroke-width:60; stroke-opacity:1; 
stroke-linecap:round; stroke-linejoin:round;">
<path d="M3940 23620
L4720 23620
" />
</g>
<g style="fill:#840000; fill-opacity:0.0; 
stroke:#840000; stroke-width:100; stroke-opacity:1; 
stroke-linecap:round; stroke-linejoin:round;">
</g>
<g style="fill:#840000; fill-opacity:0.0; 
stroke:#840000; stroke-width:60; stroke-opacity:1; 
stroke-linecap:round; stroke-linejoin:round;">
<path d="M3940 43310
L4720 43310
" />
</g>
<g style="fill:#840000; fill-opacity:0.0; 
stroke:#840000; stroke-width:100; stroke-opacity:1; 
stroke-linecap:round; stroke-linejoin:round;">
</g>
<g style="fill:#840000; fill-opacity:0.0; 
stroke:#840000; stroke-width:60; stroke-opacity:1; 
stroke-linecap:round; stroke-linejoin:round;">
<path d="M3940 62990
L4720 62990
" />
</g>
<g style="fill:#840000; fill-opacity:0.0; 
stroke:#840000; stroke-width:100; stroke-opacity:1; 
stroke-linecap:round; stroke-linejoin:round;">
</g>
<g style="fill:#840000; fill-opacity:0.0; 
stroke:#840000; stroke-width:60; stroke-opacity:1; 
stroke-linecap:round; stroke-linejoin:round;">
<path d="M3940 82680
L4720 82680
" />
</g>
<g style="fill:#840000; fill-opacity:0.0; 
stroke:#840000; stroke-width:100; stroke-opacity:1; 
stroke-linecap:round; stroke-linejoin:round;">
</g>
<g style="fill:#840000; fill-opacity:0.0; 
stroke:#840000; stroke-width:60; stroke-opacity:1; 
stroke-linecap:round; stroke-linejoin:round;">
<path d="M3940 102360
L4720 102360
" />
</g>
<g style="fill:#840000; fill-opacity:0.0; 
stroke:#840000; stroke-width:100; stroke-opacity:1; 
stroke-linecap:round; stroke-linejoin:round;">
</g>
<g style="fill:#840000; fill-opacity:0.0; 
stroke:#840000; stroke-width:60; stroke-opacity:1; 
stroke-linecap:round; stroke-linejoin:round;">
<text x="4330" y="14030"
textLength="500" font-size="680" lengthAdjust="spacingAndGlyphs"
text-anchor="middle" opacity="0">A</text>
<path d="M4200 13860
L4450 13860
" />
<path d="M4160 14010
L4330 13500
L4500 14010
" />
</g>
<g style="fill:#840000; fill-opacity:0.0; 
stroke:#840000; stroke-width:100; stroke-opacity:1; 
stroke-linecap:round; stroke-linejoin:round;">
</g>
<g style="fill:#840000; fill-opacity:0.0; 
stroke:#840000; stroke-width:60; stroke-opacity:1; 
stroke-linecap:round; stroke-linejoin:round;">
<text x="4330" y="33710"
textLength="570" font-size="680" lengthAdjust="spacingAndGlyphs"
text-anchor="middle" opacity="0">B</text>
<path d="M4360 33420
L4430 33440
L4460 33470
L4480 33520
L4480 33590
L4460 33640
L4430 33660
L4390 33690
L4190 33690
L4190 33180
L4360 33180
L4410 33200
L4430 33220
L4460 33270
L4460 33320
L4430 33370
L4410 33390
L4360 33420
L4190 33420
" />
</g>
<g style="fill:#840000; fill-opacity:0.0; 
stroke:#840000; stroke-width:100; stroke-opacity:1; 
stroke-linecap:round; stroke-linejoin:round;">
</g>
<g style="fill:#840000; fill-opacity:0.0; 
stroke:#840000; stroke-width:60; stroke-opacity:1; 
stroke-linecap:round; stroke-linejoin:round;">
<text x="4330" y="53400"
textLength="570" font-size="680" lengthAdjust="spacingAndGlyphs"
text-anchor="middle" opacity="0">C</text>
<path d="M4480 53330
L4460 53350
L4390 53380
L4340 53380
L4260 53350
L4220 53300
L4190 53250
L4170 53160
L4170 53080
L4190 52990
L4220 52940
L4260 52890
L4340 52870
L4390 52870
L4460 52890
L4480 52910
" />
</g>
<g style="fill:#840000; fill-opacity:0.0; 
stroke:#840000; stroke-width:100; stroke-opacity:1; 
stroke-linecap:round; stroke-linejoin:round;">
</g>
<g style="fill:#840000; fill-opacity:0.0; 
stroke:#840000; stroke-width:60; stroke-opacity:1; 
stroke-linecap:round; stroke-linejoin:round;">
<text x="4330" y="73080"
textLength="570" font-size="680" lengthAdjust="spacingAndGlyphs"
text-anchor="middle" opacity="0">D</text>
<path d="M4190 73060
L4190 72550
L4310 72550
L4390 72570
L4430 72620
L4460 72670
L4480 72760
L4480 72840
L4460 72930
L4430 72980
L4390 73030
L4310 73060
L4190 73060
" />
</g>
<g style="fill:#840000; fill-opacity:0.0; 
stroke:#840000; stroke-width:100; stroke-opacity:1; 
stroke-linecap:round; stroke-linejoin:round;">
</g>
<g style="fill:#840000; fill-opacity:0.0; 
stroke:#840000; stroke-width:60; stroke-opacity:1; 
stroke-linecap:round; stroke-linejoin:round;">
<text x="4330" y="92770"
textLength="520" font-size="680" lengthAdjust="spacingAndGlyphs"
text-anchor="middle" opacity="0">E</text>
<path d="M4220 92480
L4390 92480
" />
<path d="M4460 92750
L4220 92750
L4220 92240
L4460 92240
" />
</g>
<g style="fill:#840000; fill-opacity:0.0; 
stroke:#840000; stroke-width:100; stroke-opacity:1; 
stroke-linecap:round; stroke-linejoin:round;">
</g>
<g style="fill:#840000; fill-opacity:0.0; 
stroke:#840000; stroke-width:60; stroke-opacity:1; 
stroke-linecap:round; stroke-linejoin:round;">
<text x="4330" y="112450"
textLength="500" font-size="680" lengthAdjust="spacingAndGlyphs"
text-anchor="middle" opacity="0">F</text>
<path d="M4400 112160
L4230 112160
" />
<path d="M4230 112430
L4230 111920
L4470 111920
" />
</g>
<g style="fill:#840000; fill-opacity:0.0; 
stroke:#840000; stroke-width:100; stroke-opacity:1; 
stroke-linecap:round; stroke-linejoin:round;">
</g>
<g style="fill:#840000; fill-opacity:0.0; 
stroke:#840000; stroke-width:60; stroke-opacity:1; 
stroke-linecap:round; stroke-linejoin:round;">
<path d="M161410 23620
L160630 23620
" />
</g>
<g style="fill:#840000; fill-opacity:0.0; 
stroke:#840000; stroke-width:100; stroke-opacity:1; 
stroke-linecap:round; stroke-linejoin:round;">
</g>
<g style="fill:#840000; fill-opacity:0.0; 
stroke:#840000; stroke-width:60; stroke-opacity:1; 
stroke-linecap:round; stroke-linejoin:round;">
<path d="M161410 43310
L160630 43310
" />
</g>
<g style="fill:#840000; fill-opacity:0.0; 
stroke:#840000; stroke-width:100; stroke-opacity:1; 
stroke-linecap:round; stroke-linejoin:round;">
</g>
<g style="fill:#840000; fill-opacity:0.0; 
stroke:#840000; stroke-width:60; stroke-opacity:1; 
stroke-linecap:round; stroke-linejoin:round;">
<path d="M161410 62990
L160630 62990
" />
</g>
<g style="fill:#840000; fill-opacity:0.0; 
stroke:#840000; stroke-width:100; stroke-opacity:1; 
stroke-linecap:round; stroke-linejoin:round;">
</g>
<g style="fill:#840000; fill-opacity:0.0; 
stroke:#840000; stroke-width:60; stroke-opacity:1; 
stroke-linecap:round; stroke-linejoin:round;">
<path d="M161410 82680
L160630 82680
" />
</g>
<g style="fill:#840000; fill-opacity:0.0; 
stroke:#840000; stroke-width:100; stroke-opacity:1; 
stroke-linecap:round; stroke-linejoin:round;">
</g>
<g style="fill:#840000; fill-opacity:0.0; 
stroke:#840000; stroke-width:60; stroke-opacity:1; 
stroke-linecap:round; stroke-linejoin:round;">
<path d="M161410 102360
L160630 102360
" />
</g>
<g style="fill:#840000; fill-opacity:0.0; 
stroke:#840000; stroke-width:100; stroke-opacity:1; 
stroke-linecap:round; stroke-linejoin:round;">
</g>
<g style="fill:#840000; fill-opacity:0.0; 
stroke:#840000; stroke-width:60; stroke-opacity:1; 
stroke-linecap:round; stroke-linejoin:round;">
<text x="161020" y="14030"
textLength="500" font-size="680" lengthAdjust="spacingAndGlyphs"
text-anchor="middle" opacity="0">A</text>
<path d="M160890 13860
L161140 13860
" />
<path d="M160850 14010
L161020 13500
L161190 14010
" />
</g>
<g style="fill:#840000; fill-opacity:0.0; 
stroke:#840000; stroke-width:100; stroke-opacity:1; 
stroke-linecap:round; stroke-linejoin:round;">
</g>
<g style="fill:#840000; fill-opacity:0.0; 
stroke:#840000; stroke-width:60; stroke-opacity:1; 
stroke-linecap:round; stroke-linejoin:round;">
<text x="161020" y="33710"
textLength="570" font-size="680" lengthAdjust="spacingAndGlyphs"
text-anchor="middle" opacity="0">B</text>
<path d="M161050 33420
L161120 33440
L161150 33470
L161170 33520
L161170 33590
L161150 33640
L161120 33660
L161080 33690
L160880 33690
L160880 33180
L161050 33180
L161100 33200
L161120 33220
L161150 33270
L161150 33320
L161120 33370
L161100 33390
L161050 33420
L160880 33420
" />
</g>
<g style="fill:#840000; fill-opacity:0.0; 
stroke:#840000; stroke-width:100; stroke-opacity:1; 
stroke-linecap:round; stroke-linejoin:round;">
</g>
<g style="fill:#840000; fill-opacity:0.0; 
stroke:#840000; stroke-width:60; stroke-opacity:1; 
stroke-linecap:round; stroke-linejoin:round;">
<text x="161020" y="53400"
textLength="570" font-size="680" lengthAdjust="spacingAndGlyphs"
text-anchor="middle" opacity="0">C</text>
<path d="M161170 53330
L161150 53350
L161080 53380
L161030 53380
L160950 53350
L160910 53300
L160880 53250
L160860 53160
L160860 53080
L160880 52990
L160910 52940
L160950 52890
L161030 52870
L161080 52870
L161150 52890
L161170 52910
" />
</g>
<g style="fill:#840000; fill-opacity:0.0; 
stroke:#840000; stroke-width:100; stroke-opacity:1; 
stroke-linecap:round; stroke-linejoin:round;">
</g>
<g style="fill:#840000; fill-opacity:0.0; 
stroke:#840000; stroke-width:60; stroke-opacity:1; 
stroke-linecap:round; stroke-linejoin:round;">
<text x="161020" y="73080"
textLength="570" font-size="680" lengthAdjust="spacingAndGlyphs"
text-anchor="middle" opacity="0">D</text>
<path d="M160880 73060
L160880 72550
L161000 72550
L161080 72570
L161120 72620
L161150 72670
L161170 72760
L161170 72840
L161150 72930
L161120 72980
L161080 73030
L161000 73060
L160880 73060
" />
</g>
<g style="fill:#840000; fill-opacity:0.0; 
stroke:#840000; stroke-width:100; stroke-opacity:1; 
stroke-linecap:round; stroke-linejoin:round;">
</g>
<g style="fill:#840000; fill-opacity:0.0; 
stroke:#840000; stroke-width:60; stroke-opacity:1; 
stroke-linecap:round; stroke-linejoin:round;">
<text x="161020" y="92770"
textLength="520" font-size="680" lengthAdjust="spacingAndGlyphs"
text-anchor="middle" opacity="0">E</text>
<path d="M160910 92480
L161080 92480
" />
<path d="M161150 92750
L160910 92750
L160910 92240
L161150 92240
" />
</g>
<g style="fill:#840000; fill-opacity:0.0; 
stroke:#840000; stroke-width:100; stroke-opacity:1; 
stroke-linecap:round; stroke-linejoin:round;">
</g>
<g style="fill:#840000; fill-opacity:0.0; 
stroke:#840000; stroke-width:60; stroke-opacity:1; 
stroke-linecap:round; stroke-linejoin:round;">
<text x="161020" y="112450"
textLength="500" font-size="680" lengthAdjust="spacingAndGlyphs"
text-anchor="middle" opacity="0">F</text>
<path d="M161090 112160
L160920 112160
" />
<path d="M160920 112430
L160920 111920
L161160 111920
" />
</g>
<g style="fill:#840000; fill-opacity:0.0; 
stroke:#840000; stroke-width:100; stroke-opacity:1; 
stroke-linecap:round; stroke-linejoin:round;">
</g>
<g style="fill:#840000; fill-opacity:0.0; 
stroke:#840000; stroke-width:60; stroke-opacity:1; 
stroke-linecap:round; stroke-linejoin:round;">
<text x="127160" y="110570"
textLength="8710" font-size="780" lengthAdjust="spacingAndGlyphs"
text-anchor="start" opacity="0">Date: 2021-03-02</text>
<path d="M127330 110540
L127330 109950
L127470 109950
L127550 109980
L127610 110040
L127630 110090
L127660 110200
L127660 110290
L127630 110400
L127610 110460
L127550 110510
L127470 110540
L127330 110540
" />
<path d="M128170 110540
L128170 110230
L128140 110180
L128080 110150
L127970 110150
L127920 110180
" />
<path d="M128170 110510
L128110 110540
L127970 110540
L127920 110510
L127890 110460
L127890 110400
L127920 110350
L127970 110320
L128110 110320
L128170 110290
" />
<path d="M128370 110150
L128590 110150
" />
<path d="M128450 109950
L128450 110460
L128480 110510
L128530 110540
L128590 110540
" />
<path d="M129010 110510
L128960 110540
L128840 110540
L128790 110510
L128760 110460
L128760 110230
L128790 110180
L128840 110150
L128960 110150
L129010 110180
L129040 110230
L129040 110290
L128760 110350
" />
<path d="M129290 110490
L129320 110510
L129290 110540
L129260 110510
L129290 110490
L129290 110540
" />
<path d="M129290 110180
L129320 110200
L129290 110230
L129260 110200
L129290 110180
L129290 110230
" />
<path d="M129990 110010
L130020 109980
L130080 109950
L130220 109950
L130280 109980
L130300 110010
L130330 110060
L130330 110120
L130300 110200
L129970 110540
L130330 110540
" />
<path d="M130700 109950
L130750 109950
L130810 109980
L130840 110010
L130870 110060
L130890 110180
L130890 110320
L130870 110430
L130840 110490
L130810 110510
L130750 110540
L130700 110540
L130640 110510
L130610 110490
L130580 110430
L130560 110320
L130560 110180
L130580 110060
L130610 110010
L130640 109980
L130700 109950
" />
<path d="M131120 110010
L131150 109980
L131200 109950
L131340 109950
L131400 109980
L131430 110010
L131460 110060
L131460 110120
L131430 110200
L131090 110540
L131460 110540
" />
<path d="M132020 110540
L131680 110540
" />
<path d="M131850 110540
L131850 109950
L131790 110040
L131740 110090
L131680 110120
" />
<path d="M132270 110320
L132720 110320
" />
<path d="M133110 109950
L133170 109950
L133230 109980
L133250 110010
L133280 110060
L133310 110180
L133310 110320
L133280 110430
L133250 110490
L133230 110510
L133170 110540
L133110 110540
L133060 110510
L133030 110490
L133000 110430
L132970 110320
L132970 110180
L133000 110060
L133030 110010
L133060 109980
L133110 109950
" />
<path d="M133510 109950
L133870 109950
L133680 110180
L133760 110180
L133820 110200
L133840 110230
L133870 110290
L133870 110430
L133840 110490
L133820 110510
L133760 110540
L133590 110540
L133530 110510
L133510 110490
" />
<path d="M134120 110320
L134570 110320
" />
<path d="M134970 109950
L135020 109950
L135080 109980
L135110 110010
L135140 110060
L135160 110180
L135160 110320
L135140 110430
L135110 110490
L135080 110510
L135020 110540
L134970 110540
L134910 110510
L134880 110490
L134860 110430
L134830 110320
L134830 110180
L134860 110060
L134880 110010
L134910 109980
L134970 109950
" />
<path d="M135390 110010
L135420 109980
L135470 109950
L135610 109950
L135670 109980
L135700 110010
L135730 110060
L135730 110120
L135700 110200
L135360 110540
L135730 110540
" />
</g>
<g style="fill:#840000; fill-opacity:0.0; 
stroke:#840000; stroke-width:100; stroke-opacity:1; 
stroke-linecap:round; stroke-linejoin:round;">
</g>
<g style="fill:#840000; fill-opacity:0.0; 
stroke:#840000; stroke-width:60; stroke-opacity:1; 
stroke-linecap:round; stroke-linejoin:round;">
<path d="M118110 110830
L160630 110830
" />
</g>
<g style="fill:#840000; fill-opacity:0.0; 
stroke:#840000; stroke-width:100; stroke-opacity:1; 
stroke-linecap:round; stroke-linejoin:round;">
</g>
<g style="fill:#840000; fill-opacity:0.0; 
stroke:#840000; stroke-width:60; stroke-opacity:1; 
stroke-linecap:round; stroke-linejoin:round;">
<text x="118500" y="111670"
textLength="16950" font-size="780" lengthAdjust="spacingAndGlyphs"
text-anchor="start" opacity="0">KiCad E.D.A.  kicad (5.1.8-0-10_14)</text>
<path d="M118670 111640
L118670 111050
" />
<path d="M119000 111640
L118750 111300
" />
<path d="M119000 111050
L118670 111390
" />
<path d="M119260 111640
L119260 111250
" />
<path d="M119260 111050
L119230 111080
L119260 111110
L119280 111080
L119260 111050
L119260 111110
" />
<path d="M119870 111590
L119850 111610
L119760 111640
L119710 111640
L119620 111610
L119560 111560
L119540 111500
L119510 111390
L119510 111300
L119540 111190
L119560 111140
L119620 111080
L119710 111050
L119760 111050
L119850 111080
L119870 111110
" />
<path d="M120380 111640
L120380 111330
L120350 111280
L120300 111250
L120180 111250
L120130 111280
" />
<path d="M120380 111610
L120320 111640
L120180 111640
L120130 111610
L120100 111560
L120100 111500
L120130 111450
L120180 111420
L120320 111420
L120380 111390
" />
<path d="M120910 111640
L120910 111050
" />
<path d="M120910 111610
L120860 111640
L120740 111640
L120690 111610
L120660 111590
L120630 111530
L120630 111360
L120660 111300
L120690 111280
L120740 111250
L120860 111250
L120910 111280
" />
<path d="M121640 111330
L121840 111330
" />
<path d="M121920 111640
L121640 111640
L121640 111050
L121920 111050
" />
<path d="M122180 111590
L122210 111610
L122180 111640
L122150 111610
L122180 111590
L122180 111640
" />
<path d="M122460 111640
L122460 111050
L122600 111050
L122680 111080
L122740 111140
L122770 111190
L122800 111300
L122800 111390
L122770 111500
L122740 111560
L122680 111610
L122600 111640
L122460 111640
" />
<path d="M123050 111590
L123080 111610
L123050 111640
L123020 111610
L123050 111590
L123050 111640
" />
<path d="M123300 111470
L123580 111470
" />
<path d="M123250 111640
L123440 111050
L123640 111640
" />
<path d="M123840 111590
L123860 111610
L123840 111640
L123810 111610
L123840 111590
L123840 111640
" />
<path d="M125020 111640
L125020 111050
" />
<path d="M125070 111420
L125240 111640
" />
<path d="M125240 111250
L125020 111470
" />
<path d="M125490 111640
L125490 111250
" />
<path d="M125490 111050
L125460 111080
L125490 111110
L125520 111080
L125490 111050
L125490 111110
" />
<path d="M126030 111610
L125970 111640
L125860 111640
L125800 111610
L125770 111590
L125750 111530
L125750 111360
L125770 111300
L125800 111280
L125860 111250
L125970 111250
L126030 111280
" />
<path d="M126530 111640
L126530 111330
L126500 111280
L126450 111250
L126340 111250
L126280 111280
" />
<path d="M126530 111610
L126480 111640
L126340 111640
L126280 111610
L126250 111560
L126250 111500
L126280 111450
L126340 111420
L126480 111420
L126530 111390
" />
<path d="M127070 111640
L127070 111050
" />
<path d="M127070 111610
L127010 111640
L126900 111640
L126840 111610
L126810 111590
L126790 111530
L126790 111360
L126810 111300
L126840 111280
L126900 111250
L127010 111250
L127070 111280
" />
<path d="M127970 111870
L127940 111840
L127880 111750
L127850 111700
L127820 111610
L127800 111470
L127800 111360
L127820 111220
L127850 111140
L127880 111080
L127940 111000
L127970 110970
" />
<path d="M128470 111050
L128190 111050
L128160 111330
L128190 111300
L128250 111280
L128390 111280
L128440 111300
L128470 111330
L128500 111390
L128500 111530
L128470 111590
L128440 111610
L128390 111640
L128250 111640
L128190 111610
L128160 111590
" />
<path d="M128750 111590
L128780 111610
L128750 111640
L128720 111610
L128750 111590
L128750 111640
" />
<path d="M129340 111640
L129000 111640
" />
<path d="M129170 111640
L129170 111050
L129120 111140
L129060 111190
L129000 111220
" />
<path d="M129590 111590
L129620 111610
L129590 111640
L129570 111610
L129590 111590
L129590 111640
" />
<path d="M129960 111300
L129900 111280
L129880 111250
L129850 111190
L129850 111160
L129880 111110
L129900 111080
L129960 111050
L130070 111050
L130130 111080
L130160 111110
L130180 111160
L130180 111190
L130160 111250
L130130 111280
L130070 111300
L129960 111300
L129900 111330
L129880 111360
L129850 111420
L129850 111530
L129880 111590
L129900 111610
L129960 111640
L130070 111640
L130130 111610
L130160 111590
L130180 111530
L130180 111420
L130160 111360
L130130 111330
L130070 111300
" />
<path d="M130440 111420
L130890 111420
" />
<path d="M131280 111050
L131340 111050
L131390 111080
L131420 111110
L131450 111160
L131480 111280
L131480 111420
L131450 111530
L131420 111590
L131390 111610
L131340 111640
L131280 111640
L131220 111610
L131200 111590
L131170 111530
L131140 111420
L131140 111280
L131170 111160
L131200 111110
L131220 111080
L131280 111050
" />
<path d="M131730 111420
L132180 111420
" />
<path d="M132770 111640
L132430 111640
" />
<path d="M132600 111640
L132600 111050
L132540 111140
L132490 111190
L132430 111220
" />
<path d="M133130 111050
L133190 111050
L133250 111080
L133280 111110
L133300 111160
L133330 111280
L133330 111420
L133300 111530
L133280 111590
L133250 111610
L133190 111640
L133130 111640
L133080 111610
L133050 111590
L133020 111530
L132990 111420
L132990 111280
L133020 111160
L133050 111110
L133080 111080
L133130 111050
" />
<path d="M133440 111700
L133890 111700
" />
<path d="M134340 111640
L134010 111640
" />
<path d="M134170 111640
L134170 111050
L134120 111140
L134060 111190
L134010 111220
" />
<path d="M134850 111250
L134850 111640
" />
<path d="M134710 111020
L134570 111450
L134930 111450
" />
<path d="M135100 111870
L135130 111840
L135190 111750
L135210 111700
L135240 111610
L135270 111470
L135270 111360
L135240 111220
L135210 111140
L135190 111080
L135130 111000
L135100 110970
" />
</g>
<g style="fill:#840000; fill-opacity:0.0; 
stroke:#840000; stroke-width:100; stroke-opacity:1; 
stroke-linecap:round; stroke-linejoin:round;">
</g>
<g style="fill:#840000; fill-opacity:0.0; 
stroke:#840000; stroke-width:60; stroke-opacity:1; 
stroke-linecap:round; stroke-linejoin:round;">
<path d="M118110 109650
L160630 109650
" />
</g>
<g style="fill:#840000; fill-opacity:0.0; 
stroke:#840000; stroke-width:100; stroke-opacity:1; 
stroke-linecap:round; stroke-linejoin:round;">
</g>
<g style="fill:#840000; fill-opacity:0.0; 
stroke:#840000; stroke-width:120; stroke-opacity:1; 
stroke-linecap:round; stroke-linejoin:round;">
<text x="151960" y="110570"
textLength="2840" font-size="780" lengthAdjust="spacingAndGlyphs"
text-anchor="start" opacity="0">Rev: A</text>
<path d="M152510 110540
L152310 110260
" />
<path d="M152170 110540
L152170 109950
L152400 109950
L152450 109980
L152480 110010
L152510 110060
L152510 110150
L152480 110200
L152450 110230
L152400 110260
L152170 110260
" />
<path d="M152990 110510
L152930 110540
L152820 110540
L152760 110510
L152740 110460
L152740 110230
L152760 110180
L152820 110150
L152930 110150
L152990 110180
L153020 110230
L153020 110290
L152740 110350
" />
<path d="M153210 110150
L153350 110540
L153490 110150
" />
<path d="M153720 110490
L153750 110510
L153720 110540
L153690 110510
L153720 110490
L153720 110540
" />
<path d="M153720 110180
L153750 110200
L153720 110230
L153690 110200
L153720 110180
L153720 110230
" />
<path d="M154420 110370
L154700 110370
" />
<path d="M154360 110540
L154560 109950
L154760 110540
" />
</g>
<g style="fill:#840000; fill-opacity:0.0; 
stroke:#840000; stroke-width:100; stroke-opacity:1; 
stroke-linecap:round; stroke-linejoin:round;">
</g>
<g style="fill:#840000; fill-opacity:0.0; 
stroke:#840000; stroke-width:60; stroke-opacity:1; 
stroke-linecap:round; stroke-linejoin:round;">
<text x="118500" y="110570"
textLength="3780" font-size="780" lengthAdjust="spacingAndGlyphs"
text-anchor="start" opacity="0">Size: A3</text>
<path d="M118640 110510
L118720 110540
L118860 110540
L118920 110510
L118950 110490
L118970 110430
L118970 110370
L118950 110320
L118920 110290
L118860 110260
L118750 110230
L118690 110200
L118670 110180
L118640 110120
L118640 110060
L118670 110010
L118690 109980
L118750 109950
L118890 109950
L118970 109980
" />
<path d="M119230 110540
L119230 110150
" />
<path d="M119230 109950
L119200 109980
L119230 110010
L119260 109980
L119230 109950
L119230 110010
" />
<path d="M119450 110150
L119760 110150
L119450 110540
L119760 110540
" />
<path d="M120210 110510
L120150 110540
L120040 110540
L119990 110510
L119960 110460
L119960 110230
L119990 110180
L120040 110150
L120150 110150
L120210 110180
L120240 110230
L120240 110290
L119960 110350
" />
<path d="M120490 110490
L120520 110510
L120490 110540
L120460 110510
L120490 110490
L120490 110540
" />
<path d="M120490 110180
L120520 110200
L120490 110230
L120460 110200
L120490 110180
L120490 110230
" />
<path d="M121190 110370
L121480 110370
" />
<path d="M121140 110540
L121330 109950
L121530 110540
" />
<path d="M121670 109950
L122040 109950
L121840 110180
L121920 110180
L121980 110200
L122010 110230
L122040 110290
L122040 110430
L122010 110490
L121980 110510
L121920 110540
L121760 110540
L121700 110510
L121670 110490
" />
</g>
<g style="fill:#840000; fill-opacity:0.0; 
stroke:#840000; stroke-width:100; stroke-opacity:1; 
stroke-linecap:round; stroke-linejoin:round;">
</g>
<g style="fill:#840000; fill-opacity:0.0; 
stroke:#840000; stroke-width:60; stroke-opacity:1; 
stroke-linecap:round; stroke-linejoin:round;">
<text x="151960" y="111670"
textLength="3350" font-size="780" lengthAdjust="spacingAndGlyphs"
text-anchor="start" opacity="0">Id: 1/5</text>
<path d="M152130 111640
L152130 111050
" />
<path d="M152660 111640
L152660 111050
" />
<path d="M152660 111610
L152600 111640
L152490 111640
L152430 111610
L152410 111590
L152380 111530
L152380 111360
L152410 111300
L152430 111280
L152490 111250
L152600 111250
L152660 111280
" />
<path d="M152940 111590
L152970 111610
L152940 111640
L152910 111610
L152940 111590
L152940 111640
" />
<path d="M152940 111280
L152970 111300
L152940 111330
L152910 111300
L152940 111280
L152940 111330
" />
<path d="M153980 111640
L153640 111640
" />
<path d="M153810 111640
L153810 111050
L153760 111140
L153700 111190
L153640 111220
" />
<path d="M154650 111020
L154150 111780
" />
<path d="M155130 111050
L154850 111050
L154820 111330
L154850 111300
L154910 111280
L155050 111280
L155100 111300
L155130 111330
L155160 111390
L155160 111530
L155130 111590
L155100 111610
L155050 111640
L154910 111640
L154850 111610
L154820 111590
" />
</g>
<g style="fill:#840000; fill-opacity:0.0; 
stroke:#840000; stroke-width:100; stroke-opacity:1; 
stroke-linecap:round; stroke-linejoin:round;">
</g>
<g style="fill:#840000; fill-opacity:0.0; 
stroke:#840000; stroke-width:60; stroke-opacity:1; 
stroke-linecap:round; stroke-linejoin:round;">
<path d="M118110 108070
L160630 108070
" />
</g>
<g style="fill:#840000; fill-opacity:0.0; 
stroke:#840000; stroke-width:100; stroke-opacity:1; 
stroke-linecap:round; stroke-linejoin:round;">
</g>
<g style="fill:#840000; fill-opacity:0.0; 
stroke:#840000; stroke-width:160; stroke-opacity:1; 
stroke-linecap:round; stroke-linejoin:round;">
<text x="118500" y="109170"
textLength="13570" font-size="1050" lengthAdjust="spacingAndGlyphs"
text-anchor="start" opacity="0">Title: System Overview</text>
<path d="M118780 108340
L119230 108340
" />
<path d="M118900 109130
L119000 108340
" />
<path d="M119390 109130
L119460 108610
" />
<path d="M119490 108340
L119450 108380
L119480 108420
L119530 108380
L119490 108340
L119480 108420
" />
<path d="M119720 108610
L120020 108610
" />
<path d="M119870 108340
L119780 109020
L119810 109090
L119880 109130
L119960 109130
" />
<path d="M120330 109130
L120260 109090
L120240 109020
L120320 108340
" />
<path d="M120940 109090
L120860 109130
L120710 109130
L120640 109090
L120610 109020
L120650 108720
L120700 108640
L120780 108610
L120930 108610
L121000 108640
L121030 108720
L121020 108790
L120630 108870
" />
<path d="M121320 109060
L121350 109090
L121310 109130
L121280 109090
L121320 109060
L121310 109130
" />
<path d="M121370 108640
L121410 108680
L121360 108720
L121330 108680
L121370 108640
L121360 108720
" />
<path d="M122260 109090
L122370 109130
L122550 109130
L122630 109090
L122680 109060
L122720 108980
L122730 108910
L122700 108830
L122670 108790
L122600 108760
L122450 108720
L122380 108680
L122350 108640
L122320 108570
L122330 108490
L122380 108420
L122420 108380
L122500 108340
L122690 108340
L122800 108380
" />
<path d="M123030 108610
L123160 109130
" />
<path d="M123410 108610
L123160 109130
L123060 109320
L123010 109360
L122930 109400
" />
<path d="M123610 109090
L123680 109130
L123830 109130
L123910 109090
L123960 109020
L123960 108980
L123940 108910
L123870 108870
L123750 108870
L123680 108830
L123650 108760
L123660 108720
L123710 108640
L123790 108610
L123900 108610
L123970 108640
" />
<path d="M124240 108610
L124540 108610
" />
<path d="M124380 108340
L124300 109020
L124330 109090
L124400 109130
L124470 109130
" />
<path d="M125040 109090
L124960 109130
L124810 109130
L124740 109090
L124710 109020
L124750 108720
L124800 108640
L124880 108610
L125030 108610
L125100 108640
L125130 108720
L125120 108790
L124730 108870
" />
<path d="M125410 109130
L125480 108610
" />
<path d="M125470 108680
L125510 108640
L125590 108610
L125700 108610
L125770 108640
L125800 108720
L125750 109130
" />
<path d="M125800 108720
L125850 108640
L125930 108610
L126040 108610
L126110 108640
L126140 108720
L126090 109130
" />
<path d="M127320 108340
L127470 108340
L127540 108380
L127600 108460
L127620 108610
L127590 108870
L127530 109020
L127450 109090
L127370 109130
L127220 109130
L127150 109090
L127080 109020
L127060 108870
L127100 108610
L127150 108460
L127240 108380
L127320 108340
" />
<path d="M127890 108610
L128010 109130
L128260 108610
" />
<path d="M128800 109090
L128720 109130
L128570 109130
L128500 109090
L128470 109020
L128510 108720
L128560 108640
L128640 108610
L128790 108610
L128860 108640
L128890 108720
L128880 108790
L128490 108870
" />
<path d="M129170 109130
L129240 108610
" />
<path d="M129220 108760
L129270 108680
L129310 108640
L129390 108610
L129470 108610
" />
<path d="M129650 108610
L129780 109130
L130030 108610
" />
<path d="M130270 109130
L130330 108610
" />
<path d="M130360 108340
L130320 108380
L130350 108420
L130400 108380
L130360 108340
L130350 108420
" />
<path d="M130950 109090
L130870 109130
L130720 109130
L130650 109090
L130620 109020
L130660 108720
L130700 108640
L130780 108610
L130930 108610
L131000 108640
L131030 108720
L131020 108790
L130640 108870
" />
<path d="M131310 108610
L131390 109130
L131590 108760
L131700 109130
L131910 108610
" />
</g>
<g style="fill:#840000; fill-opacity:0.0; 
stroke:#840000; stroke-width:100; stroke-opacity:1; 
stroke-linecap:round; stroke-linejoin:round;">
</g>
<g style="fill:#840000; fill-opacity:0.0; 
stroke:#840000; stroke-width:60; stroke-opacity:1; 
stroke-linecap:round; stroke-linejoin:round;">
<text x="118500" y="107650"
textLength="17230" font-size="780" lengthAdjust="spacingAndGlyphs"
text-anchor="start" opacity="0">File: STPMIC1_MC32PF3000_Board.sch</text>
<path d="M118860 107310
L118670 107310
" />
<path d="M118670 107620
L118670 107030
L118950 107030
" />
<path d="M119170 107620
L119170 107230
" />
<path d="M119170 107030
L119140 107060
L119170 107090
L119200 107060
L119170 107030
L119170 107090
" />
<path d="M119540 107620
L119480 107590
L119450 107540
L119450 107030
" />
<path d="M119990 107590
L119930 107620
L119820 107620
L119760 107590
L119730 107540
L119730 107310
L119760 107260
L119820 107230
L119930 107230
L119990 107260
L120010 107310
L120010 107370
L119730 107430
" />
<path d="M120270 107570
L120300 107590
L120270 107620
L120240 107590
L120270 107570
L120270 107620
" />
<path d="M120270 107260
L120300 107280
L120270 107310
L120240 107280
L120270 107260
L120270 107310
" />
<path d="M120970 107590
L121050 107620
L121190 107620
L121250 107590
L121280 107570
L121310 107510
L121310 107450
L121280 107400
L121250 107370
L121190 107340
L121080 107310
L121030 107280
L121000 107260
L120970 107200
L120970 107140
L121000 107090
L121030 107060
L121080 107030
L121220 107030
L121310 107060
" />
<path d="M121480 107030
L121810 107030
" />
<path d="M121640 107620
L121640 107030
" />
<path d="M122010 107620
L122010 107030
L122230 107030
L122290 107060
L122320 107090
L122350 107140
L122350 107230
L122320 107280
L122290 107310
L122230 107340
L122010 107340
" />
<path d="M122600 107620
L122600 107030
L122800 107450
L122990 107030
L122990 107620
" />
<path d="M123270 107620
L123270 107030
" />
<path d="M123890 107570
L123860 107590
L123780 107620
L123720 107620
L123640 107590
L123580 107540
L123550 107480
L123530 107370
L123530 107280
L123550 107170
L123580 107120
L123640 107060
L123720 107030
L123780 107030
L123860 107060
L123890 107090
" />
<path d="M124450 107620
L124120 107620
" />
<path d="M124280 107620
L124280 107030
L124230 107120
L124170 107170
L124120 107200
" />
<path d="M124570 107680
L125020 107680
" />
<path d="M125160 107620
L125160 107030
L125350 107450
L125550 107030
L125550 107620
" />
<path d="M126170 107570
L126140 107590
L126050 107620
L126000 107620
L125910 107590
L125860 107540
L125830 107480
L125800 107370
L125800 107280
L125830 107170
L125860 107120
L125910 107060
L126000 107030
L126050 107030
L126140 107060
L126170 107090
" />
<path d="M126360 107030
L126730 107030
L126530 107260
L126620 107260
L126670 107280
L126700 107310
L126730 107370
L126730 107510
L126700 107570
L126670 107590
L126620 107620
L126450 107620
L126390 107590
L126360 107570
" />
<path d="M126950 107090
L126980 107060
L127040 107030
L127180 107030
L127230 107060
L127260 107090
L127290 107140
L127290 107200
L127260 107280
L126930 107620
L127290 107620
" />
<path d="M127540 107620
L127540 107030
L127770 107030
L127820 107060
L127850 107090
L127880 107140
L127880 107230
L127850 107280
L127820 107310
L127770 107340
L127540 107340
" />
<path d="M128330 107310
L128130 107310
" />
<path d="M128130 107620
L128130 107030
L128410 107030
" />
<path d="M128580 107030
L128950 107030
L128750 107260
L128840 107260
L128890 107280
L128920 107310
L128950 107370
L128950 107510
L128920 107570
L128890 107590
L128840 107620
L128670 107620
L128610 107590
L128580 107570
" />
<path d="M129310 107030
L129370 107030
L129430 107060
L129450 107090
L129480 107140
L129510 107260
L129510 107400
L129480 107510
L129450 107570
L129430 107590
L129370 107620
L129310 107620
L129260 107590
L129230 107570
L129200 107510
L129170 107400
L129170 107260
L129200 107140
L129230 107090
L129260 107060
L129310 107030
" />
<path d="M129880 107030
L129930 107030
L129990 107060
L130020 107090
L130040 107140
L130070 107260
L130070 107400
L130040 107510
L130020 107570
L129990 107590
L129930 107620
L129880 107620
L129820 107590
L129790 107570
L129760 107510
L129740 107400
L129740 107260
L129760 107140
L129790 107090
L129820 107060
L129880 107030
" />
<path d="M130440 107030
L130490 107030
L130550 107060
L130580 107090
L130610 107140
L130630 107260
L130630 107400
L130610 107510
L130580 107570
L130550 107590
L130490 107620
L130440 107620
L130380 107590
L130350 107570
L130330 107510
L130300 107400
L130300 107260
L130330 107140
L130350 107090
L130380 107060
L130440 107030
" />
<path d="M130750 107680
L131200 107680
" />
<path d="M131530 107310
L131620 107340
L131650 107370
L131670 107430
L131670 107510
L131650 107570
L131620 107590
L131560 107620
L131340 107620
L131340 107030
L131530 107030
L131590 107060
L131620 107090
L131650 107140
L131650 107200
L131620 107260
L131590 107280
L131530 107310
L131340 107310
" />
<path d="M132010 107620
L131950 107590
L131930 107570
L131900 107510
L131900 107340
L131930 107280
L131950 107260
L132010 107230
L132100 107230
L132150 107260
L132180 107280
L132210 107340
L132210 107510
L132180 107570
L132150 107590
L132100 107620
L132010 107620
" />
<path d="M132710 107620
L132710 107310
L132690 107260
L132630 107230
L132520 107230
L132460 107260
" />
<path d="M132710 107590
L132660 107620
L132520 107620
L132460 107590
L132430 107540
L132430 107480
L132460 107430
L132520 107400
L132660 107400
L132710 107370
" />
<path d="M132990 107620
L132990 107230
" />
<path d="M132990 107340
L133020 107280
L133050 107260
L133110 107230
L133160 107230
" />
<path d="M133610 107620
L133610 107030
" />
<path d="M133610 107590
L133560 107620
L133440 107620
L133390 107590
L133360 107570
L133330 107510
L133330 107340
L133360 107280
L133390 107260
L133440 107230
L133560 107230
L133610 107260
" />
<path d="M133890 107570
L133920 107590
L133890 107620
L133870 107590
L133890 107570
L133890 107620
" />
<path d="M134150 107590
L134200 107620
L134310 107620
L134370 107590
L134400 107540
L134400 107510
L134370 107450
L134310 107430
L134230 107430
L134170 107400
L134150 107340
L134150 107310
L134170 107260
L134230 107230
L134310 107230
L134370 107260
" />
<path d="M134900 107590
L134850 107620
L134740 107620
L134680 107590
L134650 107570
L134620 107510
L134620 107340
L134650 107280
L134680 107260
L134740 107230
L134850 107230
L134900 107260
" />
<path d="M135160 107620
L135160 107030
" />
<path d="M135410 107620
L135410 107310
L135380 107260
L135330 107230
L135240 107230
L135190 107260
L135160 107280
" />
</g>
<g style="fill:#840000; fill-opacity:0.0; 
stroke:#840000; stroke-width:100; stroke-opacity:1; 
stroke-linecap:round; stroke-linejoin:round;">
</g>
<g style="fill:#840000; fill-opacity:0.0; 
stroke:#840000; stroke-width:60; stroke-opacity:1; 
stroke-linecap:round; stroke-linejoin:round;">
<path d="M118110 105710
L160630 105710
" />
</g>
<g style="fill:#840000; fill-opacity:0.0; 
stroke:#840000; stroke-width:100; stroke-opacity:1; 
stroke-linecap:round; stroke-linejoin:round;">
</g>
<g style="fill:#840000; fill-opacity:0.0; 
stroke:#840000; stroke-width:60; stroke-opacity:1; 
stroke-linecap:round; stroke-linejoin:round;">
<text x="118500" y="106590"
textLength="3850" font-size="780" lengthAdjust="spacingAndGlyphs"
text-anchor="start" opacity="0">Sheet: /</text>
<path d="M118640 106530
L118720 106560
L118860 106560
L118920 106530
L118950 106510
L118970 106450
L118970 106390
L118950 106340
L118920 106310
L118860 106280
L118750 106250
L118690 106220
L118670 106200
L118640 106140
L118640 106080
L118670 106030
L118690 106000
L118750 105970
L118890 105970
L118970 106000
" />
<path d="M119230 106560
L119230 105970
" />
<path d="M119480 106560
L119480 106250
L119450 106200
L119400 106170
L119310 106170
L119260 106200
L119230 106220
" />
<path d="M119990 106530
L119930 106560
L119820 106560
L119760 106530
L119730 106480
L119730 106250
L119760 106200
L119820 106170
L119930 106170
L119990 106200
L120010 106250
L120010 106310
L119730 106370
" />
<path d="M120490 106530
L120440 106560
L120320 106560
L120270 106530
L120240 106480
L120240 106250
L120270 106200
L120320 106170
L120440 106170
L120490 106200
L120520 106250
L120520 106310
L120240 106370
" />
<path d="M120690 106170
L120910 106170
" />
<path d="M120770 105970
L120770 106480
L120800 106530
L120860 106560
L120910 106560
" />
<path d="M121110 106510
L121140 106530
L121110 106560
L121080 106530
L121110 106510
L121110 106560
" />
<path d="M121110 106200
L121140 106220
L121110 106250
L121080 106220
L121110 106200
L121110 106250
" />
<path d="M122260 105940
L121760 106700
" />
</g>
<g style="fill:#840000; fill-opacity:0.0; 
stroke:#840000; stroke-width:100; stroke-opacity:1; 
stroke-linecap:round; stroke-linejoin:round;">
</g>
<g style="fill:#840000; fill-opacity:0.0; 
stroke:#840000; stroke-width:120; stroke-opacity:1; 
stroke-linecap:round; stroke-linejoin:round;">
<text x="118500" y="105410"
textLength="5590" font-size="780" lengthAdjust="spacingAndGlyphs"
text-anchor="start" opacity="0">Chris Sutton</text>
<path d="M119050 105330
L119020 105350
L118940 105380
L118880 105380
L118800 105350
L118740 105300
L118710 105240
L118690 105130
L118690 105040
L118710 104930
L118740 104880
L118800 104820
L118880 104790
L118940 104790
L119020 104820
L119050 104850
" />
<path d="M119300 105380
L119300 104790
" />
<path d="M119560 105380
L119560 105070
L119530 105020
L119470 104990
L119390 104990
L119330 105020
L119300 105040
" />
<path d="M119840 105380
L119840 104990
" />
<path d="M119840 105100
L119870 105040
L119890 105020
L119950 104990
L120010 104990
" />
<path d="M120200 105380
L120200 104990
" />
<path d="M120200 104790
L120170 104820
L120200 104850
L120230 104820
L120200 104790
L120200 104850
" />
<path d="M120460 105350
L120510 105380
L120620 105380
L120680 105350
L120710 105300
L120710 105270
L120680 105210
L120620 105190
L120540 105190
L120480 105160
L120460 105100
L120460 105070
L120480 105020
L120540 104990
L120620 104990
L120680 105020
" />
<path d="M121380 105350
L121470 105380
L121610 105380
L121660 105350
L121690 105330
L121720 105270
L121720 105210
L121690 105160
L121660 105130
L121610 105100
L121490 105070
L121440 105040
L121410 105020
L121380 104960
L121380 104900
L121410 104850
L121440 104820
L121490 104790
L121640 104790
L121720 104820
" />
<path d="M122230 104990
L122230 105380
" />
<path d="M121970 104990
L121970 105300
L122000 105350
L122060 105380
L122140 105380
L122200 105350
L122230 105330
" />
<path d="M122420 104990
L122650 104990
" />
<path d="M122510 104790
L122510 105300
L122530 105350
L122590 105380
L122650 105380
" />
<path d="M122760 104990
L122980 104990
" />
<path d="M122840 104790
L122840 105300
L122870 105350
L122930 105380
L122980 105380
" />
<path d="M123260 105380
L123210 105350
L123180 105330
L123150 105270
L123150 105100
L123180 105040
L123210 105020
L123260 104990
L123350 104990
L123410 105020
L123430 105040
L123460 105100
L123460 105270
L123430 105330
L123410 105350
L123350 105380
L123260 105380
" />
<path d="M123710 104990
L123710 105380
" />
<path d="M123710 105040
L123740 105020
L123800 104990
L123880 104990
L123940 105020
L123970 105070
L123970 105380
" />
</g>
<g style="fill:#840000; fill-opacity:0.0; 
stroke:#840000; stroke-width:100; stroke-opacity:1; 
stroke-linecap:round; stroke-linejoin:round;">
</g>
<g style="fill:#840000; fill-opacity:0.0; 
stroke:#840000; stroke-width:60; stroke-opacity:1; 
stroke-linecap:round; stroke-linejoin:round;">
<path d="M125980 109650
L125980 110830
" />
</g>
<g style="fill:#840000; fill-opacity:0.0; 
stroke:#840000; stroke-width:100; stroke-opacity:1; 
stroke-linecap:round; stroke-linejoin:round;">
</g>
<g style="fill:#840000; fill-opacity:0.0; 
stroke:#840000; stroke-width:60; stroke-opacity:1; 
stroke-linecap:round; stroke-linejoin:round;">
<path d="M151180 109650
L151180 112210
" />
</g>
<g style="fill:#840084; fill-opacity:0.0; 
stroke:#840084; stroke-width:60; stroke-opacity:1; 
stroke-linecap:round; stroke-linejoin:round;">
<path d="M70500 25500
L98500 25500
L98500 45500
L70500 45500
L70500 25500
" />
</g>
<g style="fill:#008484; fill-opacity:0.0; 
stroke:#008484; stroke-width:60; stroke-opacity:1; 
stroke-linecap:round; stroke-linejoin:round;">
</g>
<g style="fill:#000000; fill-opacity:0.0; 
stroke:#000000; stroke-width:60; stroke-opacity:1; 
stroke-linecap:round; stroke-linejoin:round;">
<text x="70500" y="25460"
textLength="8540" font-size="660" lengthAdjust="spacingAndGlyphs"
text-anchor="start" opacity="0">Sheet: STPMIC1_Board</text>
<path d="M70620 25410
L70690 25430
L70810 25430
L70860 25410
L70880 25380
L70910 25340
L70910 25290
L70880 25240
L70860 25220
L70810 25190
L70720 25170
L70670 25150
L70640 25120
L70620 25070
L70620 25030
L70640 24980
L70670 24960
L70720 24930
L70830 24930
L70910 24960
" />
<path d="M71120 25430
L71120 24930
" />
<path d="M71330 25430
L71330 25170
L71310 25120
L71260 25100
L71190 25100
L71140 25120
L71120 25150
" />
<path d="M71760 25410
L71720 25430
L71620 25430
L71570 25410
L71550 25360
L71550 25170
L71570 25120
L71620 25100
L71720 25100
L71760 25120
L71790 25170
L71790 25220
L71550 25260
" />
<path d="M72190 25410
L72140 25430
L72050 25430
L72000 25410
L71980 25360
L71980 25170
L72000 25120
L72050 25100
L72140 25100
L72190 25120
L72220 25170
L72220 25220
L71980 25260
" />
<path d="M72360 25100
L72550 25100
" />
<path d="M72430 24930
L72430 25360
L72450 25410
L72500 25430
L72550 25430
" />
<path d="M72720 25380
L72740 25410
L72720 25430
L72690 25410
L72720 25380
L72720 25430
" />
<path d="M72720 25120
L72740 25150
L72720 25170
L72690 25150
L72720 25120
L72720 25170
" />
<path d="M73310 25410
L73380 25430
L73500 25430
L73550 25410
L73570 25380
L73600 25340
L73600 25290
L73570 25240
L73550 25220
L73500 25190
L73410 25170
L73360 25150
L73330 25120
L73310 25070
L73310 25030
L73330 24980
L73360 24960
L73410 24930
L73530 24930
L73600 24960
" />
<path d="M73740 24930
L74030 24930
" />
<path d="M73880 25430
L73880 24930
" />
<path d="M74190 25430
L74190 24930
L74380 24930
L74430 24960
L74450 24980
L74480 25030
L74480 25100
L74450 25150
L74430 25170
L74380 25190
L74190 25190
" />
<path d="M74690 25430
L74690 24930
L74860 25290
L75030 24930
L75030 25430
" />
<path d="M75260 25430
L75260 24930
" />
<path d="M75790 25380
L75760 25410
L75690 25430
L75640 25430
L75570 25410
L75530 25360
L75500 25310
L75480 25220
L75480 25150
L75500 25050
L75530 25000
L75570 24960
L75640 24930
L75690 24930
L75760 24960
L75790 24980
" />
<path d="M76260 25430
L75980 25430
" />
<path d="M76120 25430
L76120 24930
L76070 25000
L76030 25050
L75980 25070
" />
<path d="M76360 25480
L76740 25480
" />
<path d="M77030 25170
L77100 25190
L77120 25220
L77140 25260
L77140 25340
L77120 25380
L77100 25410
L77050 25430
L76860 25430
L76860 24930
L77030 24930
L77070 24960
L77100 24980
L77120 25030
L77120 25070
L77100 25120
L77070 25150
L77030 25170
L76860 25170
" />
<path d="M77430 25430
L77380 25410
L77360 25380
L77330 25340
L77330 25190
L77360 25150
L77380 25120
L77430 25100
L77500 25100
L77550 25120
L77570 25150
L77600 25190
L77600 25340
L77570 25380
L77550 25410
L77500 25430
L77430 25430
" />
<path d="M78030 25430
L78030 25170
L78000 25120
L77950 25100
L77860 25100
L77810 25120
" />
<path d="M78030 25410
L77980 25430
L77860 25430
L77810 25410
L77790 25360
L77790 25310
L77810 25260
L77860 25240
L77980 25240
L78030 25220
" />
<path d="M78260 25430
L78260 25100
" />
<path d="M78260 25190
L78290 25150
L78310 25120
L78360 25100
L78410 25100
" />
<path d="M78790 25430
L78790 24930
" />
<path d="M78790 25410
L78740 25430
L78640 25430
L78600 25410
L78570 25380
L78550 25340
L78550 25190
L78570 25150
L78600 25120
L78640 25100
L78740 25100
L78790 25120
" />
</g>
<g style="fill:#848400; fill-opacity:0.0; 
stroke:#848400; stroke-width:60; stroke-opacity:1; 
stroke-linecap:round; stroke-linejoin:round;">
</g>
<g style="fill:#000000; fill-opacity:0.0; 
stroke:#000000; stroke-width:60; stroke-opacity:1; 
stroke-linecap:round; stroke-linejoin:round;">
<text x="70500" y="46040"
textLength="9250" font-size="660" lengthAdjust="spacingAndGlyphs"
text-anchor="start" opacity="0">File: STPMIC1_Board.sch</text>
<path d="M70810 45750
L70640 45750
" />
<path d="M70640 46010
L70640 45510
L70880 45510
" />
<path d="M71070 46010
L71070 45680
" />
<path d="M71070 45510
L71050 45540
L71070 45560
L71100 45540
L71070 45510
L71070 45560
" />
<path d="M71380 46010
L71330 45990
L71310 45940
L71310 45510
" />
<path d="M71760 45990
L71720 46010
L71620 46010
L71570 45990
L71550 45940
L71550 45750
L71570 45700
L71620 45680
L71720 45680
L71760 45700
L71790 45750
L71790 45800
L71550 45840
" />
<path d="M72000 45960
L72030 45990
L72000 46010
L71980 45990
L72000 45960
L72000 46010
" />
<path d="M72000 45700
L72030 45730
L72000 45750
L71980 45730
L72000 45700
L72000 45750
" />
<path d="M72600 45990
L72670 46010
L72790 46010
L72830 45990
L72860 45960
L72880 45920
L72880 45870
L72860 45820
L72830 45800
L72790 45770
L72690 45750
L72640 45730
L72620 45700
L72600 45650
L72600 45610
L72620 45560
L72640 45540
L72690 45510
L72810 45510
L72880 45540
" />
<path d="M73030 45510
L73310 45510
" />
<path d="M73170 46010
L73170 45510
" />
<path d="M73480 46010
L73480 45510
L73670 45510
L73720 45540
L73740 45560
L73760 45610
L73760 45680
L73740 45730
L73720 45750
L73670 45770
L73480 45770
" />
<path d="M73980 46010
L73980 45510
L74140 45870
L74310 45510
L74310 46010
" />
<path d="M74550 46010
L74550 45510
" />
<path d="M75070 45960
L75050 45990
L74980 46010
L74930 46010
L74860 45990
L74810 45940
L74790 45890
L74760 45800
L74760 45730
L74790 45630
L74810 45580
L74860 45540
L74930 45510
L74980 45510
L75050 45540
L75070 45560
" />
<path d="M75550 46010
L75260 46010
" />
<path d="M75410 46010
L75410 45510
L75360 45580
L75310 45630
L75260 45650
" />
<path d="M75640 46060
L76030 46060
" />
<path d="M76310 45750
L76380 45770
L76410 45800
L76430 45840
L76430 45920
L76410 45960
L76380 45990
L76330 46010
L76140 46010
L76140 45510
L76310 45510
L76360 45540
L76380 45560
L76410 45610
L76410 45650
L76380 45700
L76360 45730
L76310 45750
L76140 45750
" />
<path d="M76720 46010
L76670 45990
L76640 45960
L76620 45920
L76620 45770
L76640 45730
L76670 45700
L76720 45680
L76790 45680
L76830 45700
L76860 45730
L76880 45770
L76880 45920
L76860 45960
L76830 45990
L76790 46010
L76720 46010
" />
<path d="M77310 46010
L77310 45750
L77290 45700
L77240 45680
L77140 45680
L77100 45700
" />
<path d="M77310 45990
L77260 46010
L77140 46010
L77100 45990
L77070 45940
L77070 45890
L77100 45840
L77140 45820
L77260 45820
L77310 45800
" />
<path d="M77550 46010
L77550 45680
" />
<path d="M77550 45770
L77570 45730
L77600 45700
L77640 45680
L77690 45680
" />
<path d="M78070 46010
L78070 45510
" />
<path d="M78070 45990
L78030 46010
L77930 46010
L77880 45990
L77860 45960
L77830 45920
L77830 45770
L77860 45730
L77880 45700
L77930 45680
L78030 45680
L78070 45700
" />
<path d="M78310 45960
L78330 45990
L78310 46010
L78290 45990
L78310 45960
L78310 46010
" />
<path d="M78530 45990
L78570 46010
L78670 46010
L78720 45990
L78740 45940
L78740 45920
L78720 45870
L78670 45840
L78600 45840
L78550 45820
L78530 45770
L78530 45750
L78550 45700
L78600 45680
L78670 45680
L78720 45700
" />
<path d="M79170 45990
L79120 46010
L79030 46010
L78980 45990
L78950 45960
L78930 45920
L78930 45770
L78950 45730
L78980 45700
L79030 45680
L79120 45680
L79170 45700
" />
<path d="M79380 46010
L79380 45510
" />
<path d="M79600 46010
L79600 45750
L79570 45700
L79530 45680
L79450 45680
L79410 45700
L79380 45730
" />
</g>
<g style="fill:#840084; fill-opacity:0.0; 
stroke:#840084; stroke-width:60; stroke-opacity:1; 
stroke-linecap:round; stroke-linejoin:round;">
<path d="M70500 54250
L98250 54250
L98250 70750
L70500 70750
L70500 54250
" />
</g>
<g style="fill:#008484; fill-opacity:0.0; 
stroke:#008484; stroke-width:60; stroke-opacity:1; 
stroke-linecap:round; stroke-linejoin:round;">
</g>
<g style="fill:#000000; fill-opacity:0.0; 
stroke:#000000; stroke-width:60; stroke-opacity:1; 
stroke-linecap:round; stroke-linejoin:round;">
<text x="70500" y="54210"
textLength="8130" font-size="660" lengthAdjust="spacingAndGlyphs"
text-anchor="start" opacity="0">Sheet: PF3000_Board</text>
<path d="M70620 54160
L70690 54180
L70810 54180
L70860 54160
L70880 54130
L70910 54090
L70910 54040
L70880 53990
L70860 53970
L70810 53940
L70720 53920
L70670 53900
L70640 53870
L70620 53820
L70620 53780
L70640 53730
L70670 53710
L70720 53680
L70830 53680
L70910 53710
" />
<path d="M71120 54180
L71120 53680
" />
<path d="M71330 54180
L71330 53920
L71310 53870
L71260 53850
L71190 53850
L71140 53870
L71120 53900
" />
<path d="M71760 54160
L71720 54180
L71620 54180
L71570 54160
L71550 54110
L71550 53920
L71570 53870
L71620 53850
L71720 53850
L71760 53870
L71790 53920
L71790 53970
L71550 54010
" />
<path d="M72190 54160
L72140 54180
L72050 54180
L72000 54160
L71980 54110
L71980 53920
L72000 53870
L72050 53850
L72140 53850
L72190 53870
L72220 53920
L72220 53970
L71980 54010
" />
<path d="M72360 53850
L72550 53850
" />
<path d="M72430 53680
L72430 54110
L72450 54160
L72500 54180
L72550 54180
" />
<path d="M72720 54130
L72740 54160
L72720 54180
L72690 54160
L72720 54130
L72720 54180
" />
<path d="M72720 53870
L72740 53900
L72720 53920
L72690 53900
L72720 53870
L72720 53920
" />
<path d="M73330 54180
L73330 53680
L73530 53680
L73570 53710
L73600 53730
L73620 53780
L73620 53850
L73600 53900
L73570 53920
L73530 53940
L73330 53940
" />
<path d="M74000 53920
L73830 53920
" />
<path d="M73830 54180
L73830 53680
L74070 53680
" />
<path d="M74220 53680
L74530 53680
L74360 53870
L74430 53870
L74480 53900
L74500 53920
L74530 53970
L74530 54090
L74500 54130
L74480 54160
L74430 54180
L74290 54180
L74240 54160
L74220 54130
" />
<path d="M74830 53680
L74880 53680
L74930 53710
L74950 53730
L74980 53780
L75000 53870
L75000 53990
L74980 54090
L74950 54130
L74930 54160
L74880 54180
L74830 54180
L74790 54160
L74760 54130
L74740 54090
L74720 53990
L74720 53870
L74740 53780
L74760 53730
L74790 53710
L74830 53680
" />
<path d="M75310 53680
L75360 53680
L75410 53710
L75430 53730
L75450 53780
L75480 53870
L75480 53990
L75450 54090
L75430 54130
L75410 54160
L75360 54180
L75310 54180
L75260 54160
L75240 54130
L75220 54090
L75190 53990
L75190 53870
L75220 53780
L75240 53730
L75260 53710
L75310 53680
" />
<path d="M75790 53680
L75830 53680
L75880 53710
L75910 53730
L75930 53780
L75950 53870
L75950 53990
L75930 54090
L75910 54130
L75880 54160
L75830 54180
L75790 54180
L75740 54160
L75720 54130
L75690 54090
L75670 53990
L75670 53870
L75690 53780
L75720 53730
L75740 53710
L75790 53680
" />
<path d="M76050 54230
L76430 54230
" />
<path d="M76720 53920
L76790 53940
L76810 53970
L76830 54010
L76830 54090
L76810 54130
L76790 54160
L76740 54180
L76550 54180
L76550 53680
L76720 53680
L76760 53710
L76790 53730
L76810 53780
L76810 53820
L76790 53870
L76760 53900
L76720 53920
L76550 53920
" />
<path d="M77120 54180
L77070 54160
L77050 54130
L77030 54090
L77030 53940
L77050 53900
L77070 53870
L77120 53850
L77190 53850
L77240 53870
L77260 53900
L77290 53940
L77290 54090
L77260 54130
L77240 54160
L77190 54180
L77120 54180
" />
<path d="M77720 54180
L77720 53920
L77690 53870
L77640 53850
L77550 53850
L77500 53870
" />
<path d="M77720 54160
L77670 54180
L77550 54180
L77500 54160
L77480 54110
L77480 54060
L77500 54010
L77550 53990
L77670 53990
L77720 53970
" />
<path d="M77950 54180
L77950 53850
" />
<path d="M77950 53940
L77980 53900
L78000 53870
L78050 53850
L78100 53850
" />
<path d="M78480 54180
L78480 53680
" />
<path d="M78480 54160
L78430 54180
L78330 54180
L78290 54160
L78260 54130
L78240 54090
L78240 53940
L78260 53900
L78290 53870
L78330 53850
L78430 53850
L78480 53870
" />
</g>
<g style="fill:#848400; fill-opacity:0.0; 
stroke:#848400; stroke-width:60; stroke-opacity:1; 
stroke-linecap:round; stroke-linejoin:round;">
</g>
<g style="fill:#000000; fill-opacity:0.0; 
stroke:#000000; stroke-width:60; stroke-opacity:1; 
stroke-linecap:round; stroke-linejoin:round;">
<text x="70500" y="71290"
textLength="8940" font-size="660" lengthAdjust="spacingAndGlyphs"
text-anchor="start" opacity="0">File: PF3000_Board.sch</text>
<path d="M70810 71000
L70640 71000
" />
<path d="M70640 71260
L70640 70760
L70880 70760
" />
<path d="M71070 71260
L71070 70930
" />
<path d="M71070 70760
L71050 70790
L71070 70810
L71100 70790
L71070 70760
L71070 70810
" />
<path d="M71380 71260
L71330 71240
L71310 71190
L71310 70760
" />
<path d="M71760 71240
L71720 71260
L71620 71260
L71570 71240
L71550 71190
L71550 71000
L71570 70950
L71620 70930
L71720 70930
L71760 70950
L71790 71000
L71790 71050
L71550 71090
" />
<path d="M72000 71210
L72030 71240
L72000 71260
L71980 71240
L72000 71210
L72000 71260
" />
<path d="M72000 70950
L72030 70980
L72000 71000
L71980 70980
L72000 70950
L72000 71000
" />
<path d="M72620 71260
L72620 70760
L72810 70760
L72860 70790
L72880 70810
L72910 70860
L72910 70930
L72880 70980
L72860 71000
L72810 71020
L72620 71020
" />
<path d="M73290 71000
L73120 71000
" />
<path d="M73120 71260
L73120 70760
L73360 70760
" />
<path d="M73500 70760
L73810 70760
L73640 70950
L73720 70950
L73760 70980
L73790 71000
L73810 71050
L73810 71170
L73790 71210
L73760 71240
L73720 71260
L73570 71260
L73530 71240
L73500 71210
" />
<path d="M74120 70760
L74170 70760
L74220 70790
L74240 70810
L74260 70860
L74290 70950
L74290 71070
L74260 71170
L74240 71210
L74220 71240
L74170 71260
L74120 71260
L74070 71240
L74050 71210
L74030 71170
L74000 71070
L74000 70950
L74030 70860
L74050 70810
L74070 70790
L74120 70760
" />
<path d="M74600 70760
L74640 70760
L74690 70790
L74720 70810
L74740 70860
L74760 70950
L74760 71070
L74740 71170
L74720 71210
L74690 71240
L74640 71260
L74600 71260
L74550 71240
L74530 71210
L74500 71170
L74480 71070
L74480 70950
L74500 70860
L74530 70810
L74550 70790
L74600 70760
" />
<path d="M75070 70760
L75120 70760
L75170 70790
L75190 70810
L75220 70860
L75240 70950
L75240 71070
L75220 71170
L75190 71210
L75170 71240
L75120 71260
L75070 71260
L75030 71240
L75000 71210
L74980 71170
L74950 71070
L74950 70950
L74980 70860
L75000 70810
L75030 70790
L75070 70760
" />
<path d="M75330 71310
L75720 71310
" />
<path d="M76000 71000
L76070 71020
L76100 71050
L76120 71090
L76120 71170
L76100 71210
L76070 71240
L76030 71260
L75830 71260
L75830 70760
L76000 70760
L76050 70790
L76070 70810
L76100 70860
L76100 70900
L76070 70950
L76050 70980
L76000 71000
L75830 71000
" />
<path d="M76410 71260
L76360 71240
L76330 71210
L76310 71170
L76310 71020
L76330 70980
L76360 70950
L76410 70930
L76480 70930
L76530 70950
L76550 70980
L76570 71020
L76570 71170
L76550 71210
L76530 71240
L76480 71260
L76410 71260
" />
<path d="M77000 71260
L77000 71000
L76980 70950
L76930 70930
L76830 70930
L76790 70950
" />
<path d="M77000 71240
L76950 71260
L76830 71260
L76790 71240
L76760 71190
L76760 71140
L76790 71090
L76830 71070
L76950 71070
L77000 71050
" />
<path d="M77240 71260
L77240 70930
" />
<path d="M77240 71020
L77260 70980
L77290 70950
L77330 70930
L77380 70930
" />
<path d="M77760 71260
L77760 70760
" />
<path d="M77760 71240
L77720 71260
L77620 71260
L77570 71240
L77550 71210
L77530 71170
L77530 71020
L77550 70980
L77570 70950
L77620 70930
L77720 70930
L77760 70950
" />
<path d="M78000 71210
L78030 71240
L78000 71260
L77980 71240
L78000 71210
L78000 71260
" />
<path d="M78220 71240
L78260 71260
L78360 71260
L78410 71240
L78430 71190
L78430 71170
L78410 71120
L78360 71090
L78290 71090
L78240 71070
L78220 71020
L78220 71000
L78240 70950
L78290 70930
L78360 70930
L78410 70950
" />
<path d="M78860 71240
L78810 71260
L78720 71260
L78670 71240
L78640 71210
L78620 71170
L78620 71020
L78640 70980
L78670 70950
L78720 70930
L78810 70930
L78860 70950
" />
<path d="M79070 71260
L79070 70760
" />
<path d="M79290 71260
L79290 71000
L79260 70950
L79220 70930
L79140 70930
L79100 70950
L79070 70980
" />
</g>
<g style="fill:#840084; fill-opacity:0.0; 
stroke:#840084; stroke-width:60; stroke-opacity:1; 
stroke-linecap:round; stroke-linejoin:round;">
</g> 
</svg>
